<svg width="319" height="319" viewBox="0 0 319 319" fill="none" xmlns="http://www.w3.org/2000/svg">
<path d="M49.9206 187.986L47.0022 188.737C47.3323 190.072 47.6924 191.423 48.0675 192.758L50.9559 191.933C50.5883 190.597 50.2657 189.277 49.9206 187.986Z" fill="#755B46" fill-opacity="0.09"/>
<path d="M47.3997 147.796L44.3988 147.451C44.2412 148.832 44.1062 150.227 43.9937 151.593L46.9946 151.825C47.1146 150.482 47.2647 149.124 47.3997 147.796Z" fill="#755B46" fill-opacity="0.09"/>
<path d="M46.6945 163.956L43.6936 164.031C43.6936 165.412 43.7911 166.807 43.8737 168.188L46.8746 168C46.7921 166.657 46.7246 165.292 46.6945 163.956Z" fill="#755B46" fill-opacity="0.09"/>
<path d="M48.2701 180.056L45.3142 180.567C45.5468 181.925 45.8094 183.297 46.0644 184.648L48.9979 184.04C48.7653 182.727 48.4952 181.384 48.2701 180.056Z" fill="#755B46" fill-opacity="0.09"/>
<path d="M47.1972 172.036L44.1963 172.329C44.3313 173.702 44.4889 175.09 44.6689 176.455L47.6699 176.058C47.4823 174.73 47.3248 173.379 47.1972 172.036Z" fill="#755B46" fill-opacity="0.09"/>
<path d="M46.762 155.854L43.761 155.726C43.701 157.099 43.6635 158.502 43.656 159.875H46.6569C46.6644 158.562 46.702 157.197 46.762 155.854Z" fill="#755B46" fill-opacity="0.09"/>
<path d="M48.6151 139.776L45.6667 139.221C45.4116 140.572 45.1791 141.952 44.969 143.317L47.9699 143.768C48.1425 142.44 48.3676 141.097 48.6151 139.776Z" fill="#755B46" fill-opacity="0.09"/>
<path d="M49.5153 131.644L47.5047 131.119C47.1521 132.454 46.8145 133.812 46.5144 135.155L49.4403 135.815C49.7329 134.51 50.0555 133.197 50.4006 131.899C50.1005 131.824 49.8079 131.741 49.5153 131.644Z" fill="#755B46" fill-opacity="0.09"/>
<path d="M76.854 237.825C76.3884 238.739 75.7892 239.578 75.0759 240.315C75.7361 241.021 76.3963 241.718 77.0791 242.401L79.2097 240.293C78.4145 239.475 77.6192 238.642 76.854 237.825Z" fill="#755B46" fill-opacity="0.09"/>
<path d="M80.05 245.327C81.0479 246.28 82.0832 247.218 83.1185 248.133L85.0991 245.882C84.0938 244.997 83.0885 244.082 82.0982 243.159L80.05 245.327Z" fill="#755B46" fill-opacity="0.09"/>
<path d="M86.2769 250.789C87.3422 251.659 88.4375 252.529 89.5404 253.362L91.3559 250.976C90.2831 250.158 89.2103 249.318 88.1749 248.47L86.2769 250.789Z" fill="#755B46" fill-opacity="0.09"/>
<path d="M52.8013 197.762C52.5762 197.102 52.3512 196.434 52.1336 195.774L49.2827 196.697C49.4628 197.252 49.6503 197.815 49.8454 198.377C50.7904 198.012 51.789 197.804 52.8013 197.762Z" fill="#755B46" fill-opacity="0.09"/>
<path d="M272.395 150.715L275.396 150.452C275.276 149.087 275.126 147.699 274.954 146.318L271.953 146.693C272.133 148.036 272.283 149.387 272.395 150.715Z" fill="#755B46" fill-opacity="0.09"/>
<path d="M272.83 158.802L275.831 158.75C275.831 157.377 275.756 155.981 275.681 154.601L272.68 154.758C272.755 156.109 272.808 157.467 272.83 158.802Z" fill="#755B46" fill-opacity="0.09"/>
<path d="M92.9089 255.83C94.0343 256.625 95.1596 257.413 96.3525 258.171L97.9955 255.658C96.8702 254.907 95.7448 254.157 94.642 253.407L92.9089 255.83Z" fill="#755B46" fill-opacity="0.09"/>
<path d="M269.814 134.742L272.733 134.052C272.425 132.724 272.073 131.374 271.705 130.023L268.809 130.826C269.169 132.131 269.507 133.452 269.814 134.742Z" fill="#755B46" fill-opacity="0.09"/>
<path d="M271.39 142.687L274.353 142.207C274.136 140.842 273.888 139.461 273.603 138.118L270.662 138.703C270.932 140.016 271.18 141.352 271.39 142.687Z" fill="#755B46" fill-opacity="0.09"/>
<path d="M96.3525 67.2136L94.6645 64.7228C93.5241 65.473 92.4138 66.3058 91.2734 67.116L93.029 69.5393C94.1243 68.744 95.2797 67.9638 96.3525 67.2136Z" fill="#755B46" fill-opacity="0.09"/>
<path d="M77.8592 82.8785L75.6835 80.8079C74.7307 81.8057 73.7854 82.8335 72.8701 83.8688L75.1208 85.8569C76.0061 84.8516 76.9289 83.8538 77.8592 82.8785Z" fill="#755B46" fill-opacity="0.09"/>
<path d="M83.6511 77.2142L81.6255 74.9635C80.6051 75.9013 79.5848 76.8541 78.6245 77.8144L80.7252 79.9676C81.6555 79.0598 82.6533 78.122 83.6511 77.2142Z" fill="#755B46" fill-opacity="0.09"/>
<path d="M233.998 71.625C232.94 70.7397 231.845 69.8619 230.757 69.0217L228.919 71.3924C229.977 72.2177 231.042 73.0654 232.078 73.9282L233.998 71.625Z" fill="#755B46" fill-opacity="0.09"/>
<path d="M89.8179 72.0226L87.9648 69.6669C86.877 70.5221 85.7967 71.4074 84.7463 72.2927L86.6894 74.5434C87.7098 73.6806 88.7601 72.8179 89.8179 72.0226Z" fill="#755B46" fill-opacity="0.09"/>
<path d="M240.195 77.1692C239.197 76.2089 238.169 75.2636 237.149 74.3408L235.146 76.5915C236.144 77.4843 237.142 78.4146 238.147 79.3449L240.195 77.1692Z" fill="#755B46" fill-opacity="0.09"/>
<path d="M243.121 83.5312H245.544L245.979 83.1336C245.057 82.1133 244.096 81.0929 243.136 80.1326L240.983 82.2183C241.733 82.9685 242.416 83.7188 243.121 84.469V83.5312Z" fill="#755B46" fill-opacity="0.09"/>
<path d="M217.156 258.351L218.656 260.939C219.849 260.234 221.034 259.499 222.19 258.764L220.569 256.235C219.474 256.956 218.318 257.668 217.156 258.351Z" fill="#755B46" fill-opacity="0.09"/>
<path d="M227.426 66.5308C226.308 65.7356 225.175 64.9403 224.005 64.1676L222.34 66.6659C223.465 67.4161 224.59 68.1664 225.671 68.9691L227.426 66.5308Z" fill="#755B46" fill-opacity="0.09"/>
<path d="M230.45 249.161L232.333 251.501C233.413 250.639 234.486 249.746 235.521 248.846L233.563 246.595C232.573 247.45 231.508 248.328 230.45 249.161Z" fill="#755B46" fill-opacity="0.09"/>
<path d="M237.112 243.369L236.579 243.879L238.62 246.077L239.603 245.139C238.682 244.688 237.841 244.09 237.112 243.369Z" fill="#755B46" fill-opacity="0.09"/>
<path d="M223.968 254L225.671 256.468C226.803 255.68 227.921 254.87 229.047 254.045L227.254 251.636C226.173 252.439 225.07 253.234 223.968 254Z" fill="#755B46" fill-opacity="0.09"/>
<path d="M213.254 57.8206C212.031 57.1829 210.778 56.5602 209.503 55.9675L208.213 58.6759C209.436 59.2536 210.651 59.8613 211.844 60.4839L213.254 57.8206Z" fill="#755B46" fill-opacity="0.09"/>
<path d="M220.494 61.9244C219.324 61.1742 218.123 60.4915 216.915 59.8088L215.415 62.4196C216.585 63.0873 217.763 63.7775 218.903 64.4827L220.494 61.9244Z" fill="#755B46" fill-opacity="0.09"/>
<path d="M202.698 265.538L203.839 268.314C205.107 267.796 206.39 267.241 207.643 266.671L206.405 263.94C205.182 264.495 203.936 265.036 202.698 265.538Z" fill="#755B46" fill-opacity="0.09"/>
<path d="M210.066 262.207L211.401 264.893C212.639 264.278 213.877 263.633 215.085 262.98L213.637 260.332C212.459 260.977 211.259 261.607 210.066 262.207Z" fill="#755B46" fill-opacity="0.09"/>
<path d="M271.06 181.024L274.016 181.549C274.256 180.199 274.481 178.819 274.676 177.446L271.675 177.026C271.517 178.361 271.3 179.704 271.06 181.024Z" fill="#755B46" fill-opacity="0.09"/>
<path d="M269.334 188.932L272.245 189.682C272.583 188.347 272.905 186.981 273.198 185.638L270.265 185C269.987 186.306 269.679 187.626 269.334 188.932Z" fill="#755B46" fill-opacity="0.09"/>
<path d="M272.208 173.004L275.209 173.327C275.351 171.946 275.479 170.551 275.569 169.186L272.568 168.975C272.47 170.303 272.335 171.661 272.208 173.004Z" fill="#755B46" fill-opacity="0.09"/>
<path d="M272.845 160.88C272.845 162.223 272.845 163.589 272.778 164.932L275.779 165.037C275.824 163.656 275.846 162.261 275.846 160.88H272.845Z" fill="#755B46" fill-opacity="0.09"/>
<path d="M205.729 54.242C204.462 53.6943 203.164 53.1617 201.881 52.659L200.785 55.4574C202.038 55.945 203.306 56.4627 204.537 57.0029L205.729 54.242Z" fill="#755B46" fill-opacity="0.09"/>
<path d="M267.083 196.704L269.927 197.649C270.37 196.337 270.782 195.001 271.172 193.681L268.269 192.81C267.894 194.123 267.489 195.421 267.083 196.704Z" fill="#755B46" fill-opacity="0.09"/>
<path d="M122.506 270.88C123.804 271.315 125.132 271.743 126.467 272.14L127.322 269.267C126.032 268.877 124.734 268.464 123.466 268.037L122.506 270.88Z" fill="#755B46" fill-opacity="0.09"/>
<path d="M114.711 267.924C115.979 268.457 117.284 268.974 118.582 269.469L119.647 266.664C118.38 266.183 117.112 265.681 115.896 265.163L114.711 267.924Z" fill="#755B46" fill-opacity="0.09"/>
<path d="M101.694 60.3189C100.501 61.0091 99.3086 61.7293 98.1458 62.4571L99.7362 65.0004C100.877 64.2501 102.039 63.5899 103.202 62.9147L101.694 60.3189Z" fill="#755B46" fill-opacity="0.09"/>
<path d="M134.292 271.082C133.279 270.85 132.259 270.61 131.291 270.332L130.541 273.236C131.599 273.506 132.671 273.768 133.744 273.986C133.752 272.993 133.938 272.01 134.292 271.082Z" fill="#755B46" fill-opacity="0.09"/>
<path d="M132.424 48.0151C131.081 48.3377 129.731 48.6903 128.403 49.0654L129.213 51.9538C130.503 51.5937 131.824 51.2486 133.129 50.9335L132.424 48.0151Z" fill="#755B46" fill-opacity="0.09"/>
<path d="M124.426 50.2657C123.106 50.6859 121.785 51.1285 120.488 51.6012L121.538 54.4145C122.798 53.9569 124.089 53.5218 125.372 53.1166L124.426 50.2657Z" fill="#755B46" fill-opacity="0.09"/>
<path d="M109.024 56.4252C107.786 57.0254 106.541 57.6556 105.325 58.3008L106.736 60.9566C107.921 60.3264 109.129 59.7037 110.337 59.1185L109.024 56.4252Z" fill="#755B46" fill-opacity="0.09"/>
<path d="M99.8787 260.369C101.057 261.082 102.264 261.787 103.48 262.455L104.935 259.836C103.757 259.176 102.572 258.494 101.424 257.803L99.8787 260.369Z" fill="#755B46" fill-opacity="0.09"/>
<path d="M195.106 268.344L196.044 271.195C197.357 270.76 198.677 270.302 199.967 269.83L198.925 267.009C197.672 267.474 196.389 267.924 195.106 268.344Z" fill="#755B46" fill-opacity="0.09"/>
<path d="M116.601 53.0641C115.319 53.5818 114.036 54.122 112.783 54.6771L114.036 57.423C115.251 56.8828 116.504 56.3502 117.787 55.8475L116.601 53.0641Z" fill="#755B46" fill-opacity="0.09"/>
<path d="M107.156 264.413C108.386 265.036 109.647 265.651 110.907 266.236L112.175 263.513C110.952 262.942 109.722 262.35 108.529 261.742L107.156 264.413Z" fill="#755B46" fill-opacity="0.09"/>
<path d="M190.012 48.7653C188.677 48.4052 187.319 48.0676 185.976 47.76L185.301 50.6784C186.613 50.986 187.934 51.3161 189.232 51.6612L190.012 48.7653Z" fill="#755B46" fill-opacity="0.09"/>
<path d="M187.326 270.595L188.076 273.506C189.412 273.168 190.762 272.808 192.09 272.425L191.257 269.537C189.944 269.912 188.624 270.272 187.326 270.595Z" fill="#755B46" fill-opacity="0.09"/>
<path d="M197.964 51.2186C196.659 50.7684 195.331 50.3258 194.003 49.9207L193.118 52.7866C194.408 53.1842 195.706 53.6118 196.982 54.0545L197.964 51.2186Z" fill="#755B46" fill-opacity="0.09"/>
<path d="M186.89 226.403C223.077 211.414 240.261 169.929 225.272 133.742C210.283 97.5557 168.797 80.3717 132.611 95.3606C96.4245 110.35 79.2405 151.835 94.2294 188.022C109.218 224.208 150.704 241.392 186.89 226.403Z" stroke="#755B46" stroke-opacity="0.09" stroke-width="4" stroke-miterlimit="10" stroke-dasharray="6 6"/>
<path d="M83.4184 223.105C83.4184 228.229 81.8991 233.237 79.0525 237.497C76.206 241.758 72.1601 245.078 67.4265 247.039C62.6928 248.999 57.4841 249.512 52.4589 248.513C47.4337 247.513 42.8177 245.046 39.1948 241.423C35.5718 237.8 33.1045 233.184 32.105 228.159C31.1054 223.134 31.6184 217.925 33.5791 213.191C35.5399 208.458 38.8603 204.412 43.1204 201.565C47.3806 198.719 52.3892 197.199 57.5128 197.199C64.3834 197.199 70.9726 199.929 75.8309 204.787C80.6891 209.645 83.4184 216.234 83.4184 223.105Z" stroke="#755B46" stroke-opacity="0.09" stroke-width="2" stroke-miterlimit="10"/>
<path d="M69.0665 232.28C68.8539 231.688 68.4875 231.164 68.0049 230.76C67.5223 230.357 66.9409 230.089 66.3206 229.985L61.5191 228.612V228.664L59.8836 227.164V225.971C60.821 225.486 61.5318 224.654 61.8642 223.653C61.9092 223.473 61.9542 223.3 61.9992 223.142C61.9992 223.142 62.1418 222.602 62.3143 221.89C63.4022 222.04 63.4397 219.339 63.4397 219.339C63.4 219.216 63.3174 219.112 63.207 219.046C63.0967 218.98 62.9662 218.956 62.8395 218.979C62.8395 218.904 62.8395 218.829 62.8395 218.761C62.8395 218.694 64.9177 210.103 57.0552 210.381C57.0552 210.381 54.1893 210.794 53.9117 212.377C53.5216 212.491 53.1697 212.709 52.8937 213.008C52.6176 213.306 52.4275 213.674 52.3437 214.072C52.1106 215.709 52.0527 217.367 52.1712 219.016C52.1013 218.984 52.0253 218.966 51.9482 218.965C51.8711 218.964 51.7947 218.979 51.7239 219.01C51.6531 219.04 51.5895 219.085 51.5373 219.142C51.4851 219.199 51.4454 219.266 51.4209 219.339C51.4209 219.339 51.541 222.055 52.6438 221.89C52.7263 222.197 52.8239 222.505 52.9364 222.805C53.0489 223.105 53.0714 223.345 53.154 223.653C53.4835 224.656 54.1951 225.489 55.1346 225.971V227.081L53.2665 228.822L48.6976 230.015C48.0772 230.119 47.4959 230.387 47.0133 230.79C46.5306 231.194 46.1642 231.718 45.9517 232.31L45.0139 235.844H70.0193L69.0665 232.28Z" fill="#755B46" fill-opacity="0.09"/>
<path d="M48.63 229.625L52.1861 228.702L51.9911 228.657L48.2399 227.569V227.614L46.9495 226.406V225.461C47.694 225.075 48.2572 224.412 48.5175 223.615C48.5175 223.48 48.5925 223.345 48.6225 223.21C48.6225 223.21 48.7426 222.79 48.8776 222.22C49.7404 222.34 49.7704 220.202 49.7704 220.202C49.7406 220.103 49.6748 220.018 49.5859 219.965C49.4969 219.913 49.3914 219.895 49.2902 219.916C49.2938 219.857 49.2938 219.796 49.2902 219.736C49.2902 219.736 50.9408 212.872 44.6988 213.089C44.6988 213.089 42.4481 213.419 42.208 214.68C41.8987 214.768 41.6193 214.939 41.3999 215.175C41.1805 215.41 41.0293 215.7 40.9626 216.015C40.7763 217.314 40.731 218.63 40.8276 219.939C40.7717 219.915 40.7114 219.903 40.6506 219.903C40.5898 219.904 40.5297 219.917 40.4741 219.941C40.4184 219.966 40.3685 220.002 40.3274 220.046C40.2862 220.091 40.2547 220.144 40.2349 220.202C40.2349 220.202 40.3249 222.355 41.2027 222.22C41.2702 222.467 41.3452 222.707 41.4353 222.97C41.5253 223.233 41.5403 223.398 41.6078 223.638C41.8685 224.437 42.4349 225.1 43.1833 225.483V226.361L41.6829 227.726L38.0667 228.672C37.5731 228.753 37.1102 228.965 36.7262 229.285C36.3423 229.606 36.0513 230.024 35.8835 230.495L35.1333 233.323H45.3065L45.6066 232.205C45.828 231.541 46.2265 230.949 46.7593 230.494C47.2921 230.04 47.9389 229.739 48.63 229.625Z" fill="#755B46" fill-opacity="0.09"/>
<path d="M69.9817 233.323H79.9448L79.1946 230.495C79.0282 230.024 78.7385 229.607 78.3558 229.286C77.9732 228.965 77.5115 228.753 77.0189 228.672L73.2302 227.584V227.629L71.9398 226.421V225.476C72.6847 225.088 73.2497 224.426 73.5153 223.63C73.5153 223.495 73.5828 223.36 73.6129 223.225C73.6129 223.225 73.7329 222.805 73.8679 222.235C74.7307 222.355 74.7607 220.217 74.7607 220.217C74.7325 220.118 74.6681 220.034 74.5805 219.981C74.4928 219.928 74.3883 219.91 74.2881 219.931V219.751C74.2881 219.751 75.9386 212.887 69.7041 213.104C69.7041 213.104 67.4534 213.434 67.2133 214.695C66.903 214.783 66.6225 214.954 66.4018 215.189C66.1811 215.424 66.0285 215.715 65.9605 216.03C65.7786 217.33 65.7334 218.645 65.8254 219.954C65.7695 219.93 65.7092 219.918 65.6484 219.918C65.5876 219.919 65.5275 219.932 65.4719 219.956C65.4163 219.981 65.3663 220.017 65.3252 220.061C65.284 220.106 65.2526 220.159 65.2327 220.217C65.2327 220.217 65.3228 222.37 66.2005 222.235C66.268 222.482 66.3431 222.722 66.4331 222.985C66.5231 223.247 66.5456 223.413 66.6057 223.653C66.8685 224.451 67.4343 225.113 68.1811 225.498V226.376L66.6807 227.741L63.0195 228.657L66.3956 229.625C67.0791 229.743 67.7183 230.043 68.2462 230.493C68.7741 230.943 69.1714 231.527 69.3965 232.183L69.6966 233.308H69.9592L69.9817 233.323Z" fill="#755B46" fill-opacity="0.09"/>
<path d="M185.653 270.835C185.653 275.959 184.134 280.967 181.287 285.227C178.441 289.487 174.395 292.808 169.661 294.769C164.927 296.729 159.719 297.242 154.693 296.243C149.668 295.243 145.052 292.776 141.429 289.153C137.806 285.53 135.339 280.914 134.34 275.889C133.34 270.864 133.853 265.655 135.814 260.921C137.774 256.188 141.095 252.142 145.355 249.295C149.615 246.449 154.624 244.929 159.747 244.929C166.618 244.929 173.207 247.659 178.065 252.517C182.924 257.375 185.653 263.964 185.653 270.835Z" stroke="#755B46" stroke-opacity="0.09" stroke-width="2" stroke-miterlimit="10"/>
<path d="M164.301 271.908L159.71 275.914L155.148 271.713L145.47 281.841H174.137C174.298 281.84 174.458 281.812 174.61 281.758L164.301 271.908Z" fill="#755B46" fill-opacity="0.09"/>
<path d="M165.914 270.512L175.57 279.733V262.072L165.914 270.512Z" fill="#755B46" fill-opacity="0.09"/>
<path d="M159.8 273.393L175.037 260.077C174.794 259.896 174.5 259.799 174.197 259.799H145.335C145.233 259.788 145.13 259.788 145.028 259.799L159.8 273.393Z" fill="#755B46" fill-opacity="0.09"/>
<path d="M143.933 261.374V280.423L153.618 270.287L143.933 261.374Z" fill="#755B46" fill-opacity="0.09"/>
<path d="M280.288 106.871C280.288 111.995 278.768 117.003 275.922 121.263C273.075 125.524 269.029 128.844 264.296 130.805C259.562 132.765 254.353 133.278 249.328 132.279C244.303 131.279 239.687 128.812 236.064 125.189C232.441 121.566 229.974 116.95 228.974 111.925C227.975 106.9 228.488 101.691 230.449 96.9574C232.409 92.2237 235.73 88.1778 239.99 85.3313C244.25 82.4847 249.259 80.9654 254.382 80.9654C261.253 80.9654 267.842 83.6947 272.7 88.553C277.558 93.4112 280.288 100 280.288 106.871Z" stroke="#755B46" stroke-opacity="0.09" stroke-width="2" stroke-miterlimit="10"/>
<path d="M268.194 92.519H240.023C239.686 92.519 239.364 92.6526 239.126 92.8904C238.888 93.1282 238.755 93.4507 238.755 93.7869V113.466C238.754 113.632 238.786 113.798 238.849 113.952C238.913 114.106 239.006 114.246 239.124 114.364C239.242 114.482 239.382 114.576 239.536 114.639C239.69 114.702 239.856 114.734 240.023 114.734H268.194C268.53 114.734 268.853 114.6 269.09 114.362C269.328 114.124 269.462 113.802 269.462 113.466V93.7794C269.46 93.4445 269.325 93.1239 269.088 92.8877C268.85 92.6516 268.529 92.519 268.194 92.519ZM267.196 112.408H241.013V94.4021H267.196V112.408Z" fill="#755B46" fill-opacity="0.09"/>
<path d="M266.078 95.3624H242.131V111.47H266.078V95.3624Z" fill="#755B46" fill-opacity="0.09"/>
<path d="M274.353 120.285H234.418V121.223H274.353V120.285Z" fill="#755B46" fill-opacity="0.09"/>
<path d="M269.462 115.634H238.755L234.418 119.528H274.346L269.462 115.634ZM239.13 116.166H269.379L271.105 117.577H237.659L239.13 116.166ZM249.288 118.995L250.143 117.884H258.554L259.476 118.995H249.288Z" fill="#755B46" fill-opacity="0.09"/>
<path d="M184.953 52.8521C188.239 38.9274 179.616 24.9749 165.691 21.6884C151.766 18.4019 137.814 27.0258 134.527 40.9505C131.241 54.8752 139.865 68.8276 153.789 72.1142C167.714 75.4007 181.666 66.7768 184.953 52.8521Z" stroke="#755B46" stroke-opacity="0.09" stroke-width="2" stroke-miterlimit="10"/>
<path d="M167.43 31.9H152.073C151.852 31.8991 151.634 31.9416 151.43 32.0252C151.226 32.1089 151.041 32.2319 150.885 32.3874C150.729 32.5429 150.605 32.7276 150.52 32.9311C150.436 33.1346 150.392 33.3527 150.392 33.5731V60.2364C150.392 60.6821 150.569 61.1096 150.884 61.4247C151.199 61.7399 151.627 61.917 152.073 61.917H167.43C167.874 61.915 168.3 61.737 168.613 61.4221C168.927 61.1071 169.103 60.6808 169.103 60.2364V33.5731C169.103 33.1294 168.927 32.7038 168.613 32.3901C168.299 32.0763 167.874 31.9 167.43 31.9ZM161.976 60.5665H157.549C157.405 60.5665 157.267 60.5099 157.165 60.4088C157.062 60.3077 157.004 60.1703 157.002 60.0264C157.002 59.8811 157.059 59.7418 157.162 59.6391C157.265 59.5364 157.404 59.4787 157.549 59.4787H161.998C162.142 59.4807 162.28 59.5392 162.381 59.6417C162.482 59.7442 162.538 59.8824 162.538 60.0264C162.538 60.0992 162.524 60.1714 162.495 60.2384C162.467 60.3055 162.425 60.366 162.372 60.4165C162.32 60.467 162.258 60.5063 162.189 60.5321C162.121 60.5578 162.049 60.5696 161.976 60.5665ZM165.982 56.8154H153.521V34.6384H165.982V56.8154ZM167.182 58.0682H152.298V33.5581H167.167L167.182 58.0682Z" fill="#755B46" fill-opacity="0.09"/>
<path d="M83.4184 106.871C83.4184 111.995 81.8991 117.003 79.0525 121.263C76.206 125.524 72.1601 128.844 67.4265 130.805C62.6928 132.765 57.4841 133.278 52.4589 132.279C47.4337 131.279 42.8177 128.812 39.1948 125.189C35.5718 121.566 33.1045 116.95 32.105 111.925C31.1054 106.9 31.6184 101.691 33.5791 96.9574C35.5399 92.2237 38.8603 88.1778 43.1204 85.3313C47.3806 82.4847 52.3892 80.9654 57.5128 80.9654C64.3834 80.9654 70.9726 83.6947 75.8309 88.553C80.6891 93.4112 83.4184 100 83.4184 106.871Z" stroke="#755B46" stroke-opacity="0.09" stroke-width="2" stroke-miterlimit="10"/>
<path d="M66.6883 115.671H71.0547L70.6495 116.181C69.1472 118.061 67.2252 119.561 65.0378 120.563C62.8576 121.567 60.4833 122.079 58.0831 122.063C56.2193 122.116 54.3646 121.786 52.6331 121.094C50.9015 120.403 49.3299 119.364 48.0149 118.042C45.3191 115.341 43.9712 111.775 43.9712 107.344C43.8425 103.298 45.174 99.3404 47.7224 96.1952C50.2231 93.1942 53.7242 91.6938 58.2256 91.6938C60.5168 91.5944 62.791 92.1292 64.7977 93.2393C68.769 95.67 70.7546 99.4012 70.7546 104.433C70.7758 107.201 69.9455 109.909 68.3763 112.19C66.5808 114.816 64.3301 116.129 61.6242 116.129C61.0238 116.192 60.4194 116.054 59.9061 115.736C59.3927 115.418 58.9996 114.939 58.7883 114.373C58.2558 114.867 57.6605 115.288 57.0178 115.626C56.3358 115.948 55.5885 116.107 54.8346 116.091C53.9236 116.127 53.0194 115.922 52.2123 115.498C51.4052 115.074 50.7236 114.446 50.2356 113.676C49.2513 112.106 48.7649 110.275 48.8402 108.424C48.8221 105.862 49.4628 103.338 50.7008 101.094C52.2013 98.4084 54.1619 97.0655 56.5826 97.0655C57.327 97.0626 58.0611 97.2398 58.7221 97.5821C59.3831 97.9244 59.9516 98.4215 60.3788 99.0311L60.6039 97.6131H64.6101L62.3069 112.235C62.3069 112.475 62.412 112.595 62.622 112.595C63.1076 112.555 63.5799 112.416 64.0096 112.187C64.4393 111.957 64.8173 111.641 65.1203 111.26C65.7945 110.547 66.3515 109.731 66.7708 108.844C67.3813 107.442 67.6783 105.924 67.6411 104.395C67.695 103.134 67.4987 101.875 67.0635 100.691C66.6283 99.5059 65.9627 98.4192 65.1053 97.4931C64.2254 96.608 63.1702 95.9166 62.0075 95.4631C60.8447 95.0096 59.6 94.8041 58.3532 94.8598C56.8444 94.8022 55.3409 95.0707 53.9452 95.6468C52.5496 96.223 51.2945 97.0932 50.2656 98.1983C48.17 100.419 47.1222 103.42 47.1222 107.201C47.1222 110.637 48.075 113.428 49.9806 115.574C50.9993 116.692 52.2526 117.571 53.6507 118.148C55.0489 118.725 56.5573 118.986 58.0681 118.912C61.1984 118.905 64.2242 117.785 66.6058 115.754L66.6883 115.671ZM58.5182 108.717C58.9903 107.041 59.2425 105.311 59.2685 103.57C59.2926 102.843 59.138 102.122 58.8183 101.469C58.676 101.14 58.4384 100.862 58.1362 100.669C57.834 100.477 57.481 100.379 57.1228 100.389C55.6823 100.389 54.5895 101.604 53.8443 104.035C53.3017 105.776 53.0285 107.59 53.034 109.414C53.021 110.19 53.1798 110.958 53.4992 111.665C53.6327 112.033 53.8749 112.352 54.1938 112.58C54.5126 112.808 54.893 112.934 55.2847 112.94C55.7622 112.924 56.2256 112.775 56.6231 112.51C57.0206 112.245 57.3365 111.874 57.5354 111.44C57.9702 110.575 58.3002 109.66 58.5182 108.717Z" fill="#755B46" fill-opacity="0.09"/>
<path d="M280.288 223.105C280.288 228.229 278.768 233.237 275.922 237.497C273.075 241.758 269.029 245.078 264.296 247.039C259.562 248.999 254.353 249.512 249.328 248.513C244.303 247.513 239.687 245.046 236.064 241.423C232.441 237.8 229.974 233.184 228.974 228.159C227.975 223.134 228.488 217.925 230.449 213.191C232.409 208.458 235.73 204.412 239.99 201.565C244.25 198.719 249.259 197.199 254.382 197.199C261.253 197.199 267.842 199.929 272.7 204.787C277.558 209.645 280.288 216.234 280.288 223.105Z" stroke="#755B46" stroke-opacity="0.09" stroke-width="2" stroke-miterlimit="10"/>
<path d="M254.382 227.051C248.763 227.051 238.132 226.226 238.132 223.105C238.132 219.984 248.763 219.151 254.382 219.151C260.001 219.151 270.632 219.976 270.632 223.105C270.632 226.233 260.001 227.051 254.382 227.051ZM254.382 220.464C250.729 220.422 247.08 220.739 243.489 221.409C240.128 222.122 239.437 222.91 239.437 223.105C239.437 223.3 240.128 224.088 243.489 224.793C250.686 226.06 258.049 226.06 265.246 224.793C268.607 224.088 269.297 223.293 269.297 223.105C269.297 222.917 268.607 222.122 265.246 221.409C261.664 220.741 258.025 220.424 254.382 220.464Z" fill="#755B46" fill-opacity="0.09"/>
<path d="M254.382 233.758C245.424 233.758 238.132 228.979 238.132 223.105C238.132 217.231 245.424 212.444 254.382 212.444C263.34 212.444 270.632 217.231 270.632 223.105C270.632 228.979 263.332 233.758 254.382 233.758ZM254.382 213.757C246.13 213.757 239.437 217.951 239.437 223.105C239.437 228.259 246.145 232.453 254.382 232.453C262.62 232.453 269.334 228.259 269.334 223.105C269.334 217.951 262.62 213.757 254.382 213.757Z" fill="#755B46" fill-opacity="0.09"/>
<path d="M254.382 239.325C251.066 239.325 250.188 228.694 250.188 223.075C250.188 217.456 251.066 206.825 254.382 206.825C257.698 206.825 258.576 217.456 258.576 223.075C258.576 228.694 257.698 239.325 254.382 239.325ZM254.382 208.13C253.399 208.13 251.494 213.382 251.494 223.075C251.494 232.768 253.399 238.02 254.382 238.02C255.365 238.02 257.27 232.768 257.27 223.075C257.27 213.382 255.365 208.16 254.382 208.16V208.13Z" fill="#755B46" fill-opacity="0.09"/>
<path d="M254.382 239.325C248.508 239.325 243.729 232.033 243.729 223.075C243.729 214.117 248.508 206.825 254.382 206.825C260.256 206.825 265.035 214.117 265.035 223.075C265.035 232.033 260.256 239.325 254.382 239.325ZM254.382 208.13C249.228 208.13 245.034 214.837 245.034 223.075C245.034 231.313 249.228 238.02 254.382 238.02C259.536 238.02 263.73 231.313 263.73 223.075C263.73 214.837 259.536 208.16 254.382 208.16V208.13Z" fill="#755B46" fill-opacity="0.09"/>
<path d="M254.382 239.325C251.168 239.325 248.026 238.372 245.354 236.586C242.682 234.801 240.599 232.263 239.369 229.294C238.139 226.324 237.817 223.057 238.444 219.905C239.071 216.752 240.619 213.857 242.892 211.584C245.164 209.312 248.06 207.764 251.212 207.137C254.364 206.51 257.631 206.832 260.601 208.062C263.57 209.292 266.108 211.375 267.894 214.047C269.679 216.719 270.632 219.861 270.632 223.075C270.626 227.383 268.912 231.513 265.866 234.559C262.82 237.605 258.69 239.319 254.382 239.325ZM254.382 208.13C251.428 208.132 248.541 209.009 246.085 210.65C243.629 212.292 241.714 214.625 240.583 217.354C239.452 220.083 239.156 223.086 239.731 225.984C240.306 228.882 241.727 231.544 243.814 233.634C245.902 235.725 248.562 237.15 251.459 237.729C254.355 238.309 257.359 238.017 260.09 236.89C262.821 235.763 265.156 233.852 266.802 231.399C268.447 228.945 269.328 226.059 269.334 223.105C269.328 219.142 267.751 215.343 264.948 212.541C262.145 209.74 258.345 208.164 254.382 208.16V208.13Z" fill="#755B46" fill-opacity="0.09"/>
<path d="M310.792 169.396C310.792 172.412 309.898 175.361 308.222 177.869C306.546 180.378 304.164 182.332 301.377 183.487C298.59 184.641 295.523 184.943 292.564 184.355C289.606 183.766 286.888 182.314 284.755 180.181C282.622 178.048 281.169 175.33 280.581 172.371C279.992 169.413 280.294 166.346 281.449 163.559C282.603 160.772 284.558 158.39 287.066 156.714C289.574 155.038 292.523 154.143 295.54 154.143C299.585 154.143 303.465 155.75 306.325 158.611C309.185 161.471 310.792 165.35 310.792 169.396Z" stroke="#755B46" stroke-opacity="0.09" stroke-width="1.17" stroke-miterlimit="10" stroke-dasharray="2.36 2.36"/>
<path d="M302.345 174.805C302.222 174.455 302.008 174.144 301.724 173.905C301.44 173.666 301.098 173.508 300.732 173.447L297.918 172.644L296.936 171.804V171.054C297.209 170.915 297.453 170.723 297.652 170.49C297.852 170.257 298.003 169.987 298.098 169.696C298.098 169.591 298.151 169.486 298.173 169.388C298.173 169.388 298.263 169.081 298.368 168.638C299.006 168.728 299.029 167.137 299.029 167.137C299.005 167.066 298.956 167.006 298.891 166.967C298.827 166.929 298.75 166.914 298.676 166.927V166.8C298.676 166.8 299.899 161.706 295.27 161.863C295.27 161.863 293.589 162.111 293.424 163.041C293.193 163.107 292.984 163.235 292.82 163.411C292.656 163.586 292.544 163.804 292.494 164.039C292.359 165.003 292.326 165.979 292.397 166.95C292.355 166.932 292.311 166.922 292.266 166.922C292.221 166.922 292.176 166.93 292.135 166.948C292.093 166.966 292.056 166.991 292.025 167.024C291.994 167.057 291.97 167.095 291.954 167.137C291.954 167.137 292.029 168.735 292.704 168.638C292.757 168.818 292.809 169.005 292.877 169.178C292.944 169.351 292.959 169.501 293.004 169.681C293.101 169.973 293.253 170.243 293.454 170.476C293.655 170.709 293.9 170.9 294.175 171.039V171.699L293.079 172.719L290.393 173.417C290.028 173.478 289.685 173.636 289.401 173.875C289.117 174.114 288.903 174.425 288.78 174.775L288.218 176.868H302.945L302.345 174.805Z" fill="#755B46" fill-opacity="0.09"/>
<path d="M290.341 173.237L292.434 172.689H292.322L290.071 172.051L289.321 171.346V170.791C289.759 170.563 290.09 170.173 290.243 169.703C290.243 169.621 290.288 169.546 290.303 169.463C290.303 169.463 290.378 169.216 290.454 168.885C290.964 168.953 290.979 167.693 290.979 167.693C290.96 167.636 290.922 167.588 290.871 167.556C290.82 167.524 290.76 167.512 290.701 167.52V167.422C290.701 167.422 291.676 163.379 288 163.506C288 163.506 286.665 163.701 286.537 164.444C286.351 164.493 286.183 164.592 286.05 164.731C285.918 164.871 285.827 165.044 285.787 165.232C285.675 165.997 285.647 166.772 285.705 167.543C285.672 167.527 285.636 167.518 285.6 167.517C285.564 167.517 285.528 167.524 285.494 167.538C285.461 167.552 285.431 167.573 285.406 167.6C285.382 167.626 285.363 167.658 285.352 167.693C285.352 167.693 285.412 168.96 285.922 168.878C285.967 169.028 286.012 169.171 286.065 169.306C286.117 169.441 286.125 169.561 286.162 169.703C286.316 170.175 286.651 170.566 287.092 170.791V171.309L286.23 172.111L284.092 172.667C283.802 172.715 283.531 172.84 283.307 173.028C283.083 173.217 282.913 173.463 282.816 173.739L282.366 175.405H288.368L288.54 174.745C288.673 174.352 288.911 174.003 289.228 173.737C289.546 173.471 289.931 173.298 290.341 173.237Z" fill="#755B46" fill-opacity="0.09"/>
<path d="M302.877 175.405H308.744L308.302 173.74C308.202 173.463 308.031 173.218 307.805 173.029C307.58 172.841 307.308 172.716 307.019 172.667L304.768 172.029L304.018 171.324V170.769C304.456 170.541 304.787 170.15 304.94 169.681C304.94 169.598 304.986 169.523 305.001 169.441C305.001 169.441 305.076 169.193 305.151 168.863C305.661 168.93 305.676 167.67 305.676 167.67C305.657 167.613 305.619 167.565 305.568 167.534C305.517 167.502 305.457 167.489 305.398 167.498V167.4C305.398 167.4 306.373 163.356 302.697 163.484C302.697 163.484 301.362 163.679 301.234 164.422C301.048 164.47 300.88 164.57 300.747 164.709C300.615 164.848 300.524 165.021 300.484 165.209C300.372 165.974 300.344 166.749 300.402 167.52C300.369 167.504 300.333 167.496 300.297 167.495C300.261 167.494 300.225 167.501 300.191 167.515C300.158 167.53 300.128 167.551 300.103 167.577C300.079 167.604 300.06 167.636 300.049 167.67C300.049 167.67 300.109 168.938 300.627 168.855C300.663 169.001 300.708 169.144 300.762 169.283C300.762 169.411 300.822 169.538 300.859 169.681C301.013 170.152 301.348 170.543 301.79 170.769V171.286L300.927 172.089L298.789 172.644L300.777 173.214C301.18 173.28 301.558 173.454 301.87 173.719C302.182 173.983 302.416 174.327 302.547 174.715L302.727 175.375H302.877V175.405Z" fill="#755B46" fill-opacity="0.09"/>
<path d="M38.7045 171.886C38.7045 174.903 37.81 177.852 36.134 180.36C34.4581 182.868 32.076 184.823 29.289 185.978C26.502 187.132 23.4353 187.434 20.4767 186.846C17.518 186.257 14.8003 184.804 12.6672 182.671C10.5342 180.538 9.08154 177.821 8.49303 174.862C7.90451 171.903 8.20656 168.837 9.36097 166.05C10.5154 163.263 12.4703 160.881 14.9785 159.205C17.4868 157.529 20.4356 156.634 23.4522 156.634C27.4974 156.634 31.3769 158.241 34.2372 161.101C37.0976 163.962 38.7045 167.841 38.7045 171.886Z" stroke="#755B46" stroke-opacity="0.09" stroke-width="1.17" stroke-miterlimit="10" stroke-dasharray="2.36 2.36"/>
<path d="M26.1457 172.554L23.4448 174.91L20.759 172.442L15.0647 178.406H31.9375C32.0323 178.404 32.1262 178.387 32.2151 178.353L26.1457 172.554Z" fill="#755B46" fill-opacity="0.09"/>
<path d="M27.0835 171.699L32.7703 177.131V166.732L27.0835 171.699Z" fill="#755B46" fill-opacity="0.09"/>
<path d="M23.4672 173.402L32.4325 165.562C32.2899 165.454 32.116 165.396 31.9373 165.397H15.0045C14.9447 165.39 14.8843 165.39 14.8245 165.397L23.4672 173.402Z" fill="#755B46" fill-opacity="0.09"/>
<path d="M14.1418 166.327V177.536L19.8436 171.571L14.1418 166.327Z" fill="#755B46" fill-opacity="0.09"/>
<path d="M250.188 180.649C258.612 180.649 265.441 173.82 265.441 165.397C265.441 156.973 258.612 150.145 250.188 150.145C241.765 150.145 234.936 156.973 234.936 165.397C234.936 173.82 241.765 180.649 250.188 180.649Z" stroke="#755B46" stroke-opacity="0.09" stroke-width="1.17" stroke-miterlimit="10" stroke-dasharray="2.36 2.36"/>
<path d="M260.054 163.184C259.845 163.369 259.573 163.468 259.293 163.458C259.014 163.448 258.749 163.331 258.553 163.131C256.404 160.847 253.437 159.508 250.302 159.408C247.167 159.308 244.121 160.455 241.831 162.598C241.727 162.697 241.605 162.774 241.472 162.826C241.339 162.877 241.197 162.902 241.054 162.898C240.911 162.895 240.77 162.863 240.64 162.805C240.509 162.747 240.391 162.664 240.293 162.561C240.194 162.458 240.117 162.336 240.066 162.202C240.014 162.069 239.99 161.927 239.993 161.784C239.996 161.641 240.028 161.501 240.086 161.37C240.144 161.239 240.227 161.122 240.33 161.023C243.039 158.487 246.642 157.128 250.351 157.245C254.06 157.361 257.571 158.944 260.114 161.646C260.308 161.858 260.411 162.139 260.4 162.427C260.388 162.715 260.264 162.987 260.054 163.184Z" fill="#755B46" fill-opacity="0.09"/>
<path d="M257.713 165.802C257.504 165.988 257.232 166.086 256.952 166.076C256.673 166.066 256.408 165.949 256.213 165.749C254.647 164.085 252.484 163.11 250.2 163.038C247.916 162.966 245.696 163.804 244.029 165.367C243.819 165.566 243.539 165.673 243.249 165.666C242.96 165.658 242.686 165.536 242.487 165.326C242.288 165.116 242.181 164.835 242.188 164.546C242.196 164.257 242.318 163.983 242.528 163.784C244.618 161.831 247.396 160.786 250.255 160.877C253.114 160.969 255.82 162.189 257.781 164.272C257.973 164.484 258.075 164.764 258.062 165.051C258.049 165.337 257.924 165.607 257.713 165.802Z" fill="#755B46" fill-opacity="0.09"/>
<path d="M255.507 168.69C255.3 168.879 255.028 168.979 254.748 168.971C254.468 168.963 254.203 168.846 254.007 168.645C252.991 167.565 251.588 166.932 250.106 166.884C248.624 166.836 247.183 167.378 246.1 168.39C245.891 168.589 245.611 168.697 245.323 168.69C245.034 168.683 244.761 168.562 244.562 168.353C244.363 168.144 244.255 167.864 244.262 167.576C244.269 167.288 244.39 167.014 244.599 166.815C246.1 165.41 248.096 164.657 250.151 164.722C252.206 164.786 254.151 165.663 255.56 167.16C255.657 167.264 255.733 167.386 255.783 167.519C255.833 167.652 255.857 167.794 255.852 167.936C255.847 168.078 255.814 168.218 255.755 168.348C255.696 168.477 255.612 168.594 255.507 168.69Z" fill="#755B46" fill-opacity="0.09"/>
<path d="M251.816 169.471C252.143 169.821 252.359 170.26 252.437 170.732C252.515 171.205 252.45 171.69 252.252 172.127C252.055 172.563 251.732 172.931 251.325 173.183C250.918 173.436 250.445 173.563 249.966 173.547C249.488 173.531 249.024 173.374 248.635 173.095C248.245 172.816 247.947 172.428 247.778 171.98C247.609 171.531 247.577 171.043 247.685 170.577C247.794 170.11 248.038 169.686 248.388 169.358C248.62 169.14 248.893 168.97 249.191 168.858C249.489 168.745 249.807 168.693 250.125 168.703C250.444 168.714 250.757 168.787 251.047 168.919C251.337 169.05 251.599 169.238 251.816 169.471Z" fill="#755B46" fill-opacity="0.09"/>
<path d="M98.6708 280.423C98.6708 283.44 97.7763 286.388 96.1004 288.897C94.4244 291.405 92.0423 293.36 89.2553 294.514C86.4684 295.669 83.4016 295.971 80.443 295.382C77.4843 294.794 74.7666 293.341 72.6336 291.208C70.5005 289.075 69.0478 286.357 68.4593 283.398C67.8708 280.44 68.1729 277.373 69.3273 274.586C70.4817 271.799 72.4366 269.417 74.9448 267.741C77.4531 266.065 80.4019 265.171 83.4186 265.171C87.4637 265.171 91.3432 266.778 94.2035 269.638C97.0639 272.498 98.6708 276.378 98.6708 280.423Z" stroke="#755B46" stroke-opacity="0.09" stroke-width="1.17" stroke-miterlimit="10" stroke-dasharray="2.36 2.36"/>
<path d="M83.4185 282.749C80.11 282.749 73.853 282.261 73.853 280.423C73.853 278.585 80.11 278.097 83.4185 278.097C86.7271 278.097 92.984 278.577 92.984 280.423C92.984 282.269 86.7271 282.749 83.4185 282.749ZM83.4185 278.862C81.2671 278.839 79.1185 279.027 77.004 279.425C75.0234 279.845 74.6183 280.318 74.6183 280.423C74.6183 280.528 75.0234 281.001 77.004 281.413C81.2474 282.163 85.5896 282.163 89.833 281.413C91.8137 281.001 92.2188 280.528 92.2188 280.423C92.2188 280.318 91.8137 279.845 89.833 279.425C87.7186 279.027 85.57 278.838 83.4185 278.862Z" fill="#755B46" fill-opacity="0.09"/>
<path d="M83.4185 286.695C78.1669 286.695 73.853 283.882 73.853 280.423C73.853 276.964 78.1444 274.143 83.4185 274.143C88.6927 274.143 92.984 276.964 92.984 280.423C92.984 283.882 88.6927 286.695 83.4185 286.695ZM83.4185 274.916C78.572 274.916 74.6183 277.384 74.6183 280.423C74.6183 283.461 78.572 285.922 83.4185 285.922C88.265 285.922 92.2188 283.454 92.2188 280.423C92.2188 277.392 88.2725 274.916 83.4185 274.916Z" fill="#755B46" fill-opacity="0.09"/>
<path d="M83.4185 289.988C81.4679 289.988 80.9502 283.731 80.9502 280.423C80.9502 277.114 81.4679 270.85 83.4185 270.85C85.3691 270.85 85.8867 277.114 85.8867 280.423C85.8867 283.731 85.3766 289.988 83.4185 289.988ZM83.4185 271.623C82.8408 271.623 81.7154 274.729 81.7154 280.423C81.7154 286.117 82.8408 289.216 83.4185 289.216C83.9962 289.216 85.1215 286.11 85.1215 280.423C85.1215 274.736 84.0262 271.623 83.4185 271.623Z" fill="#755B46" fill-opacity="0.09"/>
<path d="M83.4185 289.988C79.9599 289.988 77.1465 285.697 77.1465 280.423C77.1465 275.149 79.9599 270.835 83.4185 270.835C86.877 270.835 89.6904 275.134 89.6904 280.408C89.6904 285.682 86.877 289.988 83.4185 289.988ZM83.4185 271.623C80.4175 271.623 77.9117 275.569 77.9117 280.423C77.9117 285.277 80.3875 289.216 83.4185 289.216C86.4494 289.216 88.9252 285.269 88.9252 280.423C88.9252 275.576 86.4569 271.623 83.4185 271.623Z" fill="#755B46" fill-opacity="0.09"/>
<path d="M83.4186 289.988C81.5246 289.99 79.6728 289.43 78.0973 288.378C76.5219 287.327 75.2938 285.832 74.5683 284.082C73.8428 282.333 73.6526 280.407 74.0217 278.55C74.3909 276.692 75.3027 274.986 76.642 273.646C77.9813 272.307 79.6877 271.395 81.5454 271.026C83.4031 270.657 85.3285 270.847 87.078 271.573C88.8276 272.298 90.3226 273.526 91.3739 275.102C92.4252 276.677 92.9856 278.529 92.9841 280.423C92.9822 282.959 91.9737 285.391 90.1803 287.185C88.3868 288.978 85.955 289.986 83.4186 289.988ZM83.4186 271.623C81.6781 271.623 79.9767 272.139 78.5295 273.106C77.0823 274.073 75.9543 275.447 75.2883 277.055C74.6222 278.663 74.4479 280.433 74.7875 282.14C75.127 283.847 75.9652 285.415 77.1959 286.646C78.4267 287.876 79.9947 288.715 81.7018 289.054C83.4089 289.394 85.1783 289.219 86.7864 288.553C88.3944 287.887 89.7688 286.759 90.7358 285.312C91.7028 283.865 92.2189 282.163 92.2189 280.423C92.2149 278.09 91.2865 275.854 89.637 274.205C87.9875 272.555 85.7514 271.627 83.4186 271.623Z" fill="#755B46" fill-opacity="0.09"/>
<path d="M253.384 46.282C253.384 49.2986 252.49 52.2475 250.814 54.7557C249.138 57.2639 246.756 59.2189 243.969 60.3733C241.182 61.5277 238.115 61.8297 235.156 61.2412C232.198 60.6527 229.48 59.2001 227.347 57.067C225.214 54.9339 223.761 52.2162 223.173 49.2576C222.584 46.2989 222.886 43.2322 224.041 40.4452C225.195 37.6582 227.15 35.2761 229.658 33.6002C232.166 31.9243 235.115 31.0297 238.132 31.0297C242.177 31.0297 246.057 32.6367 248.917 35.497C251.777 38.3574 253.384 42.2368 253.384 46.282Z" stroke="#755B46" stroke-opacity="0.09" stroke-width="1.17" stroke-miterlimit="10" stroke-dasharray="2.36 2.36"/>
<path d="M242.648 37.4443H233.646C233.383 37.4443 233.131 37.5486 232.945 37.7343C232.76 37.92 232.655 38.1719 232.655 38.4346V54.1295C232.655 54.3922 232.76 54.644 232.945 54.8298C233.131 55.0155 233.383 55.1198 233.646 55.1198H242.648C242.911 55.1198 243.163 55.0155 243.349 54.8298C243.534 54.644 243.639 54.3922 243.639 54.1295V38.4346C243.639 38.1719 243.534 37.92 243.349 37.7343C243.163 37.5486 242.911 37.4443 242.648 37.4443ZM239.445 54.3246H236.827C236.781 54.3316 236.734 54.3287 236.689 54.3159C236.644 54.3031 236.603 54.2808 236.567 54.2506C236.532 54.2203 236.504 54.1827 236.484 54.1404C236.465 54.0982 236.455 54.0522 236.455 54.0057C236.455 53.9592 236.465 53.9132 236.484 53.871C236.504 53.8287 236.532 53.7912 236.567 53.7609C236.603 53.7306 236.644 53.7083 236.689 53.6955C236.734 53.6827 236.781 53.6798 236.827 53.6869H239.445C239.521 53.6986 239.591 53.7372 239.641 53.7957C239.691 53.8541 239.718 53.9287 239.718 54.0057C239.718 54.0828 239.691 54.1573 239.641 54.2158C239.591 54.2743 239.521 54.3129 239.445 54.3246ZM241.801 52.0739H234.463V39.0573H241.801V52.0739ZM242.506 52.8241H233.758V38.4271H242.506V52.8241Z" fill="#755B46" fill-opacity="0.09"/>
<path d="M243.729 282.749C243.729 285.765 242.834 288.714 241.158 291.222C239.482 293.731 237.1 295.686 234.313 296.84C231.526 297.994 228.459 298.296 225.501 297.708C222.542 297.119 219.824 295.667 217.691 293.534C215.558 291.401 214.106 288.683 213.517 285.724C212.929 282.766 213.231 279.699 214.385 276.912C215.54 274.125 217.494 271.743 220.003 270.067C222.511 268.391 225.46 267.496 228.476 267.496C232.522 267.496 236.401 269.103 239.261 271.964C242.122 274.824 243.729 278.704 243.729 282.749Z" stroke="#755B46" stroke-opacity="0.09" stroke-width="1.17" stroke-miterlimit="10" stroke-dasharray="2.36 2.36"/>
<path d="M233.878 287.925H236.444L236.211 288.225C235.323 289.33 234.191 290.214 232.903 290.806C231.622 291.402 230.227 291.71 228.814 291.706C227.714 291.735 226.621 291.539 225.6 291.128C224.579 290.718 223.653 290.103 222.88 289.321C222.077 288.486 221.452 287.497 221.044 286.414C220.635 285.331 220.45 284.176 220.502 283.019C220.439 280.631 221.238 278.301 222.752 276.454C223.508 275.566 224.458 274.864 225.529 274.402C226.599 273.94 227.762 273.731 228.927 273.791C230.276 273.731 231.616 274.045 232.798 274.699C233.928 275.371 234.853 276.341 235.47 277.503C236.088 278.664 236.375 279.972 236.301 281.286C236.315 282.916 235.828 284.51 234.906 285.855C234.497 286.552 233.914 287.132 233.215 287.538C232.516 287.944 231.723 288.163 230.915 288.173C230.561 288.21 230.204 288.129 229.901 287.942C229.598 287.754 229.366 287.471 229.242 287.138C228.932 287.433 228.584 287.686 228.206 287.888C227.803 288.076 227.361 288.168 226.916 288.158C226.381 288.179 225.85 288.059 225.376 287.81C224.902 287.561 224.502 287.192 224.215 286.74C223.634 285.819 223.346 284.744 223.39 283.656C223.379 282.146 223.757 280.658 224.485 279.335C225.356 277.76 226.511 276.964 227.944 276.964C228.385 276.96 228.821 277.064 229.214 277.266C229.606 277.469 229.943 277.765 230.195 278.127L230.33 277.294H232.693L231.335 285.885C231.335 286.027 231.395 286.102 231.522 286.102C231.813 286.082 232.097 286.001 232.355 285.866C232.614 285.73 232.841 285.542 233.023 285.314C233.414 284.894 233.733 284.413 233.968 283.889C234.33 283.065 234.504 282.17 234.478 281.271C234.509 280.529 234.391 279.788 234.134 279.091C233.876 278.395 233.484 277.756 232.978 277.212C232.459 276.687 231.836 276.278 231.148 276.01C230.46 275.743 229.724 275.623 228.987 275.659C228.105 275.631 227.228 275.792 226.415 276.131C225.601 276.47 224.869 276.979 224.268 277.625C222.986 279.065 222.321 280.951 222.415 282.876C222.335 284.672 222.935 286.432 224.095 287.805C224.694 288.465 225.43 288.984 226.252 289.327C227.074 289.669 227.962 289.826 228.852 289.786C230.694 289.783 232.475 289.126 233.878 287.933V287.925ZM229.069 283.829C229.341 282.851 229.485 281.843 229.497 280.828C229.51 280.403 229.42 279.981 229.234 279.598C229.151 279.403 229.012 279.239 228.834 279.125C228.656 279.011 228.448 278.954 228.236 278.96C227.389 278.96 226.736 279.673 226.301 281.106C225.984 282.131 225.825 283.198 225.828 284.272C225.815 284.737 225.91 285.2 226.106 285.622C226.184 285.837 226.325 286.024 226.511 286.158C226.698 286.292 226.92 286.367 227.149 286.372C227.432 286.366 227.708 286.28 227.944 286.123C228.181 285.966 228.368 285.746 228.484 285.487C228.748 284.961 228.945 284.404 229.069 283.829Z" fill="#755B46" fill-opacity="0.09"/>
<path d="M119.332 85.7669C119.334 88.7838 118.44 91.7334 116.765 94.2426C115.09 96.7518 112.709 98.7079 109.922 99.8635C107.135 101.019 104.068 101.322 101.109 100.735C98.1498 100.147 95.4314 98.6948 93.2976 96.562C91.1638 94.4292 89.7104 91.7116 89.1213 88.7527C88.5321 85.7939 88.8337 82.7267 89.9879 79.9393C91.1421 77.1519 93.097 74.7694 95.6054 73.0931C98.1138 71.4168 101.063 70.5221 104.08 70.5221C108.124 70.5221 112.002 72.128 114.862 74.9867C117.722 77.8455 119.33 81.723 119.332 85.7669Z" stroke="#755B46" stroke-opacity="0.09" stroke-width="1.17" stroke-miterlimit="10" stroke-dasharray="2.36 2.36"/>
<path d="M112.212 77.3193H95.6247C95.4258 77.3193 95.2349 77.3983 95.0942 77.539C94.9536 77.6797 94.8745 77.8705 94.8745 78.0695V89.6531C94.8745 89.8521 94.9536 90.0429 95.0942 90.1836C95.2349 90.3243 95.4258 90.4034 95.6247 90.4034H112.212C112.411 90.4034 112.602 90.3243 112.743 90.1836C112.884 90.0429 112.963 89.8521 112.963 89.6531V78.062C112.961 77.8643 112.881 77.6754 112.74 77.5364C112.6 77.3973 112.41 77.3193 112.212 77.3193ZM111.62 89.0229H96.2099V78.4371H111.62V89.0229Z" fill="#755B46" fill-opacity="0.09"/>
<path d="M110.96 78.9848H96.8628V88.4678H110.96V78.9848Z" fill="#755B46" fill-opacity="0.09"/>
<path d="M115.836 93.6594H92.3237V94.2145H115.836V93.6594Z" fill="#755B46" fill-opacity="0.09"/>
<path d="M112.955 90.921H94.8745L92.3237 93.2167H115.836L112.955 90.921ZM95.0996 91.2361H112.91L113.931 92.0689H94.2293L95.0996 91.2361ZM101.101 92.9016L101.604 92.2489H106.533L107.081 92.9016H101.101Z" fill="#755B46" fill-opacity="0.09"/>
<path d="M78.2795 46.282C78.2795 49.2983 77.3851 52.2469 75.7095 54.7549C74.0339 57.263 71.6523 59.2179 68.8657 60.3726C66.0792 61.5272 63.0128 61.8297 60.0544 61.2418C57.0959 60.6539 54.3782 59.202 52.2449 57.0696C50.1115 54.9373 48.6583 52.2203 48.0689 49.2622C47.4795 46.304 47.7805 43.2375 48.9338 40.4504C50.087 37.6633 52.0408 35.2807 54.548 33.6038C57.0553 31.927 60.0034 31.0312 63.0197 31.0297C65.0233 31.0287 67.0074 31.4225 68.8588 32.1886C70.7101 32.9546 72.3924 34.078 73.8095 35.4944C75.2266 36.9108 76.3508 38.5925 77.1177 40.4435C77.8847 42.2945 78.2795 44.2784 78.2795 46.282Z" stroke="#755B46" stroke-opacity="0.09" stroke-width="1.17" stroke-miterlimit="10" stroke-dasharray="2.36 2.36"/>
<path d="M63.0197 43.116C62.1398 43.116 61.2796 43.377 60.548 43.8658C59.8164 44.3547 59.2462 45.0495 58.9095 45.8624C58.5727 46.6753 58.4846 47.5699 58.6563 48.4329C58.8279 49.2959 59.2517 50.0886 59.8739 50.7108C60.496 51.333 61.2888 51.7567 62.1518 51.9283C63.0148 52.1 63.9093 52.0119 64.7222 51.6752C65.5351 51.3384 66.23 50.7682 66.7188 50.0366C67.2077 49.305 67.4686 48.4448 67.4686 47.5649C67.4686 46.385 66.9999 45.2534 66.1655 44.4191C65.3312 43.5847 64.1996 43.116 63.0197 43.116ZM64.9553 50.1907C65.5088 49.5731 65.8089 48.7693 65.7956 47.94C65.7959 47.3295 65.6284 46.7306 65.3114 46.2087C64.9943 45.6869 64.54 45.2623 63.998 44.9812C63.456 44.7001 62.8471 44.5734 62.238 44.615C61.6288 44.6565 61.0428 44.8646 60.5439 45.2167C60.8564 44.8672 61.2392 44.5876 61.6672 44.3962C62.0952 44.2048 62.5587 44.1059 63.0276 44.106C63.4964 44.1061 63.9599 44.2051 64.3878 44.3967C64.8158 44.5882 65.1984 44.8679 65.5108 45.2175C65.8232 45.5671 66.0583 45.9787 66.2007 46.4253C66.3431 46.872 66.3896 47.3437 66.3372 47.8096C66.2847 48.2755 66.1345 48.7251 65.8964 49.1289C65.6583 49.5328 65.3376 49.8818 64.9553 50.1532V50.1907Z" fill="#755B46" fill-opacity="0.09"/>
<path d="M71.6324 40.4002H54.377C54.1641 40.4002 53.9599 40.4847 53.8094 40.6353C53.6588 40.7858 53.5743 40.99 53.5743 41.2029V53.9569C53.5731 54.0662 53.5943 54.1746 53.6365 54.2754C53.6787 54.3762 53.7411 54.4673 53.8197 54.5432C53.8984 54.619 53.9917 54.678 54.094 54.7165C54.1963 54.755 54.3054 54.7723 54.4145 54.7672H71.6699C71.8835 54.7672 72.0885 54.6828 72.2402 54.5325C72.392 54.3822 72.4782 54.178 72.4802 53.9644V41.2104C72.4803 41.1008 72.4582 40.9923 72.4151 40.8914C72.3721 40.7906 72.309 40.6996 72.2298 40.6238C72.1505 40.548 72.0567 40.4892 71.954 40.4507C71.8513 40.4123 71.7419 40.3951 71.6324 40.4002ZM63.0197 53.4918C61.8475 53.4918 60.7016 53.1442 59.7269 52.4929C58.7523 51.8417 57.9926 50.916 57.544 49.833C57.0954 48.75 56.9781 47.5583 57.2067 46.4086C57.4354 45.2589 57.9999 44.2029 58.8288 43.374C59.6577 42.5451 60.7137 41.9806 61.8634 41.7519C63.0131 41.5232 64.2048 41.6406 65.2878 42.0892C66.3708 42.5378 67.2965 43.2975 67.9477 44.2721C68.599 45.2468 68.9466 46.3927 68.9466 47.5649C68.9466 48.3432 68.7933 49.1139 68.4954 49.833C68.1976 50.5521 67.761 51.2055 67.2106 51.7558C66.6603 52.3062 66.0069 52.7428 65.2878 53.0406C64.5688 53.3385 63.798 53.4918 63.0197 53.4918ZM71.4974 42.7034H67.4761V41.488H71.5049L71.4974 42.7034Z" fill="#755B46" fill-opacity="0.09"/>
<path d="M66.8609 37.8344H59.5536L57.2354 40.0851H68.8115L66.8609 37.8344ZM66.7033 38.442H59.6736V38.157H66.7033V38.442Z" fill="#755B46" fill-opacity="0.09"/>
<g opacity="0.4">
<path d="M143.415 219.819C143.527 219.069 144.435 218.626 144.473 217.906C144.51 217.186 143.572 216.735 143.482 216.008C143.392 215.28 144.09 214.815 144.015 214.11C143.91 213.239 143.04 212.714 143.04 211.746C143.58 211.799 143.79 212.602 144.405 211.941C144.668 211.656 144.495 211.191 144.668 210.914C144.84 210.636 145.268 210.734 145.665 210.689C146.806 210.561 148.734 209.286 148.074 207.868C147.924 207.553 146.776 206.637 147.563 206.495C147.676 206.495 148.314 206.847 148.486 206.885C148.864 206.978 149.261 206.957 149.627 206.825C150.014 206.64 150.36 206.379 150.644 206.058C150.929 205.737 151.147 205.363 151.285 204.957C151.416 204.457 151.715 204.017 152.132 203.711C153.303 202.744 153.52 201.356 153.43 199.96C153.34 198.565 153.138 197.364 154.931 197.184C155.243 197.19 155.555 197.147 155.854 197.057C156.143 196.885 156.453 196.751 156.776 196.659C157.684 196.487 157.782 196.284 158.202 195.474C158.548 194.873 158.864 194.254 159.147 193.621C159.407 192.808 159.543 191.961 159.552 191.107C159.642 190.357 159.852 189.712 159.912 188.992C159.972 188.271 159.792 187.581 160.265 187.004C160.738 186.426 161.27 186.253 161.615 185.556C162.171 184.438 162.688 183.68 162.688 182.405C162.775 181.798 162.775 181.181 162.688 180.574C162.433 179.824 161.938 180.206 161.368 180.041C160.152 179.689 160.227 177.941 158.892 177.791C158.337 177.716 157.774 177.858 157.219 177.791C156.53 177.727 155.837 177.727 155.148 177.791C155.261 176.973 154.218 176.523 153.648 176.23C153.303 176.058 153.468 176.005 153.018 176.073C152.818 176.131 152.624 176.209 152.44 176.305C152.048 176.472 151.677 176.686 151.337 176.943C151.24 176.44 151.697 176.133 151.585 175.645C150.024 174.985 149.379 176.163 148.321 177.003C148.021 176.29 148.426 176.02 148.914 175.578C149.097 175.443 149.251 175.273 149.366 175.076C149.481 174.88 149.554 174.663 149.582 174.437C149.739 173.439 149.184 172.337 148.914 171.384C148.644 170.431 148.329 170.573 147.518 170.573C146.951 170.607 146.381 170.57 145.823 170.461C143.745 169.943 143.01 167.693 141.089 167.01C140.169 166.73 139.224 166.536 138.268 166.432C137.818 166.352 137.374 166.24 136.94 166.095C136.31 165.892 136.137 165.494 135.695 165.119C135.252 164.744 134.847 164.842 134.299 165.022C133.932 165.142 132.799 165.689 133.549 166.05C133.658 166.383 133.658 166.743 133.549 167.077C133.309 167.505 132.799 167.4 132.574 167.76C132.333 167.569 132.162 167.303 132.089 167.004C132.016 166.705 132.044 166.391 132.169 166.11C132.356 165.554 133.069 165.157 133.016 164.542C132.409 164.422 131.996 165.082 131.516 165.292C131.021 165.464 130.548 165.693 130.106 165.975C129.901 166.114 129.719 166.283 129.565 166.477C129.408 166.695 129.385 167.025 129.183 167.227C128.983 167.368 128.751 167.456 128.508 167.482C128.012 167.588 128.275 167.64 127.84 167.34C127.202 166.905 127.135 166.965 126.414 167.145C125.864 167.274 125.32 167.431 124.786 167.618C124.396 167.753 124.741 168.03 124.194 167.73C123.976 167.625 123.744 167.242 123.601 167.062C123.399 166.835 123.247 166.568 123.155 166.279C123.064 165.989 123.034 165.684 123.068 165.382C123.121 164.774 123.301 164.204 123.391 163.596C123.466 163.124 123.766 162.246 123.533 161.811C122.903 160.543 121.08 161.811 120.165 161.473C119.415 161.158 119.94 160.723 120.367 160.258C120.764 159.819 120.997 159.257 121.028 158.667C121.14 158.157 121.89 157.639 121.935 157.167C121.98 156.499 120.75 155.981 120.247 155.831C119.917 155.701 119.551 155.691 119.214 155.806C118.878 155.92 118.592 156.149 118.409 156.454C118.072 157.204 118.582 157.557 117.734 158.12C117.258 158.448 116.734 158.701 116.181 158.87C115.273 159.102 114.681 159.2 114.208 158.375C113.657 157.433 113.42 156.339 113.533 155.254C113.669 154.306 113.897 153.374 114.216 152.47C114.313 152.118 114.313 151.803 114.396 151.457C114.516 150.88 114.291 151.052 114.891 150.85C115.472 150.711 115.996 150.397 116.391 149.949C116.927 149.509 117.614 149.296 118.304 149.357C118.942 149.357 119.43 149.634 120 149.612C120.75 149.612 120.96 148.922 121.5 148.697C122.155 148.577 122.83 148.694 123.406 149.027C123.976 149.237 124.801 148.794 125.244 149.087C125.687 149.379 125.522 150.242 125.649 150.745C125.732 151.06 125.904 151.27 125.964 151.585C126.024 151.9 125.867 152.223 125.889 152.515C125.972 153.266 126.594 153.386 127.157 153.033C127.428 152.824 127.645 152.554 127.791 152.245C127.937 151.936 128.008 151.597 127.997 151.255C128.057 150.34 127.525 149.679 127.405 148.892C127.232 147.594 128.83 147.699 129.513 147.211C130.196 146.723 130.413 145.621 131.223 145.17C131.891 144.78 132.724 144.698 133.129 143.918C133.534 143.137 132.521 141.037 133.729 140.744C134.119 140.647 134.269 141.067 134.629 141.022C134.99 140.977 135.462 140.271 135.687 140.024C135.891 139.755 136.156 139.538 136.46 139.391C136.764 139.244 137.098 139.17 137.435 139.176C137.82 139.19 138.201 139.099 138.538 138.912C138.875 138.726 139.155 138.452 139.348 138.118C139.491 137.841 139.416 137.466 139.581 137.195C139.904 136.663 139.979 136.955 140.489 136.805C141.307 136.573 141.989 135.883 142.852 135.605C143.25 135.477 144.465 135.012 144.69 135.395C145.08 136.04 143.542 135.83 143.325 136.363C142.784 137.668 145.125 136.123 145.343 136.033C146.011 135.763 147.654 135.943 147.376 134.712C146.998 134.697 146.619 134.733 146.251 134.817C145.635 134.945 145.793 135.042 145.433 134.637C145.32 134.55 145.227 134.44 145.161 134.314C145.094 134.188 145.055 134.05 145.047 133.907C145.038 133.765 145.06 133.623 145.111 133.49C145.162 133.357 145.241 133.237 145.343 133.137C145.898 132.492 146.228 132.259 145.02 132.154C144.652 132.093 144.275 132.116 143.917 132.221C143.752 132.274 143.167 132.769 143.055 132.732C142.207 132.529 143.512 131.659 143.805 131.524C144.466 131.262 145.16 131.093 145.868 131.021C147.143 130.796 148.816 131.771 150.002 131.096C150.317 130.924 150.459 130.631 150.752 130.451C151.083 130.297 151.427 130.174 151.78 130.083C152.395 129.858 153.168 129.581 153.28 128.853C153.513 127.517 151.682 128.02 150.925 127.915C151 127.705 151.405 127.472 151.435 127.262C151.517 126.805 151.202 126.812 151.007 126.475C150.594 125.807 150.887 125.177 151.067 124.539C151.247 123.901 151.067 123.039 150.467 122.806C149.582 122.483 149.334 123.406 148.809 123.781C148.471 124.021 147.654 124.231 147.361 123.781C147.068 123.331 147.218 122.461 147.046 122.018C146.656 121.103 146.296 121.05 145.35 120.953C144.739 120.87 144.121 120.848 143.505 120.885C143.198 120.876 142.898 120.977 142.658 121.17C142.419 121.362 142.256 121.634 142.199 121.936C142.147 122.228 142.342 122.506 142.199 122.783C142.057 123.061 141.509 123.084 141.217 123.234C140.346 123.676 140.969 123.984 141.074 124.689C141.103 125.039 141.016 125.389 140.826 125.685C140.636 125.981 140.354 126.205 140.024 126.325C139.518 126.562 139.053 126.876 138.643 127.255C138.381 127.502 138.141 127.547 137.983 127.915C137.825 128.283 137.9 128.568 137.66 128.898C137.308 129.408 136.798 130.196 136.077 130.016C135.815 129.925 135.594 129.742 135.456 129.5C135.318 129.259 135.272 128.975 135.327 128.703C135.402 128.11 135.942 127.592 135.792 126.932C135.612 126.182 134.81 126.332 134.157 126.182C133.412 125.934 132.707 125.581 132.064 125.132C131.448 124.742 130.683 124.877 130.473 124.074C130.061 122.528 131.741 122.138 132.769 121.658C133.534 121.443 134.251 121.087 134.885 120.608C135.417 120.053 135.125 119.783 135.92 119.738C136.94 119.693 138.538 119.535 139.281 118.755C138.966 118.492 138.261 118.507 138.426 117.914C138.928 117.914 139.438 117.914 139.926 117.854C140.5 117.699 141.088 117.603 141.682 117.569C142.327 117.569 143.475 117.772 143.932 117.179C144.157 116.689 144.245 116.147 144.187 115.611C143.707 115.566 143.235 115.236 142.754 115.484C142.274 115.731 142.244 116.294 141.862 116.534C141.111 117.014 140.526 116.534 140.639 115.739C140.061 115.739 139.378 115.851 139.138 115.206C138.898 114.561 139.528 113.931 138.733 113.826C138.378 113.803 138.025 113.902 137.733 114.104C137.44 114.307 137.224 114.603 137.12 114.944C137.03 115.694 137.368 116.174 136.257 116.444C135.604 116.622 134.972 116.874 134.374 117.194C133.587 117.569 133.512 117.022 132.821 116.864C132.367 116.812 131.906 116.827 131.456 116.909C131.208 116.909 130.601 117.187 130.406 117.119C130.098 117.022 130.196 116.662 129.745 116.669C129.418 116.764 129.105 116.903 128.815 117.082C128.395 117.314 127.652 118.162 127.142 117.869C126.632 117.577 126.857 116.857 126.189 116.639C125.522 116.421 124.899 116.909 124.321 116.677C123.894 116.497 124.104 116.279 123.849 116.046C123.473 115.701 122.881 115.836 122.348 115.686C121.795 115.498 121.231 115.343 120.66 115.221C119.317 115.022 117.959 114.934 116.601 114.959C115.911 114.959 115.671 115.334 115.101 115.574C114.932 115.634 114.759 115.681 114.583 115.716C110.232 120.172 106.566 125.249 103.705 130.781C103.792 130.931 103.865 131.09 103.922 131.254C104.095 131.854 104.027 133.504 103.112 133.504C102.849 133.504 102.692 133.242 102.549 133.092C100.777 136.904 99.3944 140.885 98.4231 144.975C98.9774 145.078 99.4684 145.397 99.7885 145.861C100.141 146.468 99.9161 147.301 100.201 147.961C100.506 148.567 100.738 149.207 100.891 149.867C100.951 150.197 100.801 150.617 100.891 150.902C101.026 151.405 101.251 151.27 101.537 151.577C102.324 152.448 101.574 154.578 103.307 154.864C103.375 154.473 103.202 154.331 103.127 154.016C103.052 153.701 103.052 153.303 102.985 152.943C102.908 152.321 102.762 151.709 102.549 151.12C102.287 150.58 100.606 147.901 101.942 147.901C103.052 147.901 103.315 150.362 103.712 151.12C103.899 151.384 104.05 151.672 104.162 151.975C104.222 152.253 104.095 152.575 104.162 152.845C104.327 153.416 104.913 153.596 105.355 154.001C106.361 154.991 105.738 156.251 106.346 157.347C106.956 158.415 107.832 159.306 108.889 159.935C109.782 160.513 111.14 161.518 112.175 161.571C113.405 161.623 114.261 160.82 115.341 161.698C115.686 161.976 115.844 162.268 116.136 162.538C116.716 163.091 117.403 163.52 118.154 163.799C118.619 163.874 119.212 163.664 119.655 163.799C120.352 164.001 120.27 164.549 120.457 165.097C120.645 165.644 121.095 165.96 121.305 166.425C121.515 166.89 121.508 167.28 122.056 167.663C122.603 168.045 123.061 168.188 123.503 168.525C123.946 168.863 124.584 169.673 125.214 169.388C125.732 169.148 125.597 168.368 125.612 167.888C126.165 167.771 126.741 167.853 127.24 168.12C127.727 168.48 127.667 169.073 127.99 169.621C128.65 170.814 128.245 172.044 127.457 173.087C126.712 173.962 126.051 174.907 125.484 175.908C125.298 176.183 125.185 176.5 125.154 176.83C125.116 177.401 125.364 177.213 125.522 177.618C125.679 178.023 125.327 178.653 125.116 179.119C124.906 179.584 124.464 180.852 125.417 180.972C125.417 180.972 126.122 181.872 126.167 181.947C126.397 182.417 126.534 182.926 126.572 183.447C126.725 184.209 127.031 184.931 127.472 185.571C127.847 186.193 127.945 186.869 128.282 187.476C128.62 188.084 129.033 188.497 129.37 189.037C129.813 189.787 129.82 189.93 130.691 189.975C131.561 190.02 131.906 190.35 132.641 190.942C134.142 192.15 135.312 192.945 134.817 194.896C134.391 196.7 134.469 198.587 135.042 200.35C135.248 201.206 135.361 202.081 135.38 202.961C135.38 203.359 135.38 203.771 135.432 204.176C135.485 204.582 135.717 204.972 135.77 205.362C135.867 206.06 135.717 206.915 135.77 207.613C135.777 207.924 135.823 208.234 135.905 208.535C135.972 208.82 136.272 209.211 136.302 209.443C136.4 210.148 135.882 210.403 136.227 211.146C136.355 211.424 136.543 211.671 136.693 211.964C136.843 212.257 136.835 212.557 136.97 212.864C137.21 213.457 137.72 213.532 137.87 214.185C137.981 214.725 138.023 215.277 137.998 215.828C137.9 216.15 137.03 216.578 137.248 217.073C137.368 217.313 137.87 217.231 138.096 217.441C138.287 217.676 138.414 217.958 138.463 218.258C138.501 218.416 138.538 218.588 138.576 218.761C140.181 219.331 141.817 219.831 143.482 220.262C143.44 220.118 143.418 219.969 143.415 219.819Z" fill="#755B46" fill-opacity="0.09"/>
<path d="M130.601 156.799C130.088 156.604 129.586 156.379 129.1 156.124C128.652 155.797 128.172 155.515 127.667 155.284C126.917 155.044 126.219 155.051 125.484 154.856C125.057 154.736 125.011 154.856 124.606 154.954C124.367 154.972 124.129 155.005 123.894 155.051C123.751 155.134 123.008 155.569 123.196 155.801C123.383 156.034 124.126 155.681 124.351 155.531C125.154 155.014 125.852 155.426 126.602 155.704C126.966 155.785 127.313 155.927 127.63 156.124C127.81 156.259 128.253 156.582 128.298 156.777C128.41 157.152 127.81 157.122 127.975 157.527C128.14 157.932 128.988 157.842 129.31 157.819C129.56 157.795 129.811 157.795 130.061 157.819C130.391 157.887 130.623 158.037 130.953 157.954C131.036 157.744 131.268 157.489 131.231 157.264C131.193 157.039 130.818 156.919 130.601 156.799Z" fill="#755B46" fill-opacity="0.09"/>
<path d="M134.007 158C133.535 158.058 133.057 157.966 132.641 157.737V157.632C132.266 157.564 132.499 158.075 132.544 158.225C132.589 158.375 132.754 158.637 132.349 158.72C132.071 158.78 131.681 158.615 131.426 158.72C131.171 158.825 131.193 159.185 131.479 159.282C131.936 159.44 132.566 159.065 133.024 159.125C133.189 159.125 133.212 159.252 133.309 159.275C133.479 159.29 133.65 159.29 133.819 159.275C134.147 159.327 134.482 159.327 134.81 159.275C134.982 159.215 135.35 158.765 135.012 158.72C135.515 158.832 135.29 158.412 135.08 158.21C134.75 157.955 134.472 158 134.007 158Z" fill="#755B46" fill-opacity="0.09"/>
<path d="M129.175 159.245C128.95 159.072 128.695 159.245 128.665 158.907C128.493 158.874 128.316 158.877 128.145 158.917C127.974 158.957 127.814 159.033 127.675 159.14C127.795 159.185 127.937 159.14 128.042 159.215C128.147 159.29 128.207 159.387 128.305 159.47C128.409 159.553 128.53 159.612 128.66 159.642C128.79 159.672 128.925 159.672 129.055 159.643C129.363 159.613 129.475 159.485 129.175 159.245Z" fill="#755B46" fill-opacity="0.09"/>
<path d="M128.665 158.817C128.661 158.847 128.661 158.878 128.665 158.908H128.741L128.665 158.817Z" fill="#755B46" fill-opacity="0.09"/>
<path d="M137.293 159.05L137.42 158.982C136.993 158.817 136.79 158.982 136.543 159.312C136.655 159.56 136.813 159.417 136.993 159.47C137.173 159.523 137.308 159.665 137.556 159.665C137.968 159.665 138.306 159.56 138.261 159.05C137.796 158.982 137.698 159.297 137.293 159.05Z" fill="#755B46" fill-opacity="0.09"/>
<path d="M151.877 130.608C151.803 130.611 151.729 130.626 151.66 130.653C151.658 130.668 151.658 130.684 151.66 130.698L151.877 130.608Z" fill="#755B46" fill-opacity="0.09"/>
<path d="M152.47 131.779C152.387 131.715 152.318 131.635 152.267 131.543C152.217 131.452 152.186 131.35 152.177 131.246C152.117 130.901 152.26 130.976 152.32 130.698C152.38 130.421 152.598 130.353 152.132 130.316C151.847 130.316 151.78 130.436 151.66 130.653C151.729 130.626 151.803 130.611 151.877 130.608L151.63 130.698C151.628 130.684 151.628 130.668 151.63 130.653C150.947 130.871 150.737 131.944 150.309 132.387C150.107 132.589 149.349 132.837 149.919 133.032C150.489 133.227 150.947 132.724 151.465 132.814C151.982 132.904 152.11 133.182 152.583 133.114C152.928 133.069 153.58 132.702 153.52 132.281C153.483 131.681 152.823 132.041 152.47 131.779Z" fill="#755B46" fill-opacity="0.09"/>
<path d="M152.86 116.587C152.63 116.355 152.492 116.049 152.47 115.724C152.47 115.476 152.763 115.341 152.763 115.184C152.763 114.816 152.012 114.508 151.72 114.433C151.217 114.336 150.925 114.493 150.61 113.991C150.294 113.488 150.317 113.24 149.574 113.353C149.096 113.494 148.585 113.475 148.119 113.3C147.639 113.068 147.451 112.655 146.851 112.55C146.622 112.503 146.385 112.514 146.161 112.581C145.938 112.647 145.734 112.768 145.568 112.933C145.32 113.105 144.555 113.563 144.24 113.338C143.745 112.993 144.825 112.588 144.84 112.453C144.84 111.98 143.805 112.453 143.61 112.55C143.085 112.775 142.627 113.15 142.109 113.383C141.592 113.616 141.247 113.886 141.899 114.208C142.377 114.391 142.89 114.463 143.4 114.418C143.904 114.474 144.405 114.56 144.9 114.673C145.38 114.748 145.583 115.041 146.011 115.146C146.581 115.296 146.881 114.703 147.339 114.621C147.607 114.62 147.872 114.681 148.112 114.8C148.353 114.918 148.563 115.091 148.726 115.304C149.012 115.619 149.087 116.054 149.424 116.279C149.642 116.444 149.942 116.489 150.174 116.677C150.535 116.969 150.775 117.382 150.512 117.787C150.249 118.192 149.919 118.012 149.582 117.787C149.3 117.58 148.963 117.46 148.614 117.442C148.414 117.442 148.216 117.477 148.029 117.547C147.851 117.677 147.69 117.828 147.549 117.997C147.318 118.33 146.998 118.59 146.626 118.747C146.146 118.867 145.275 118.447 144.848 118.695C144.794 118.715 144.748 118.75 144.713 118.796C144.679 118.841 144.658 118.895 144.652 118.952C144.647 119.009 144.657 119.066 144.683 119.118C144.708 119.169 144.747 119.212 144.795 119.242C145.013 119.377 145.545 119.122 145.741 119.092C146.234 119.002 146.744 119.07 147.196 119.287C147.586 119.55 147.691 120.158 148.044 120.51C148.262 120.727 148.522 120.897 148.809 121.009C149.095 121.121 149.402 121.174 149.709 121.163C149.949 121.163 150.422 121.215 150.324 120.818C150.257 120.578 149.724 120.653 149.574 120.465C149.499 120.241 149.499 119.999 149.574 119.775C149.867 119.505 150.219 119.955 150.414 120.045C150.76 120.203 151.562 120.248 151.69 119.73C151.765 119.445 151.562 119.362 151.457 119.145C151.319 118.92 151.251 118.658 151.262 118.395C151.262 116.969 152.665 118.072 153.378 118.252C153.926 118.41 154.683 117.862 154.218 117.299C153.911 116.962 153.198 116.984 152.86 116.587Z" fill="#755B46" fill-opacity="0.09"/>
<path d="M126.039 112.655C126.474 112.568 126.918 112.54 127.36 112.573C127.525 112.573 128.11 112.535 128.11 112.303C128.11 111.943 127.12 112.01 126.917 111.958C126.682 111.91 126.452 111.845 126.227 111.763C126.006 111.695 125.774 111.67 125.544 111.688C125.389 111.672 125.234 111.672 125.079 111.688C124.936 111.725 124.816 111.808 124.681 111.845C124.543 111.886 124.412 111.947 124.291 112.025C124.171 112.093 124.021 112.138 123.894 112.205C123.706 112.36 123.511 112.506 123.308 112.64C123.061 112.768 122.791 112.805 122.558 112.918C122.176 113.09 121.913 113.458 121.508 113.548C121.62 113.691 121.71 113.863 121.898 113.923C122.01 113.938 122.123 113.938 122.236 113.923C122.319 113.951 122.404 113.973 122.491 113.991C122.603 113.991 122.633 113.991 122.708 113.893C122.766 113.786 122.831 113.684 122.903 113.586C123.074 113.469 123.283 113.42 123.488 113.451C123.766 113.471 124.044 113.414 124.291 113.286C124.566 113.134 124.862 113.025 125.169 112.963C125.462 112.895 125.754 112.768 126.039 112.655Z" fill="#755B46" fill-opacity="0.09"/>
<path d="M132.514 114.328C132.259 114.058 132.514 113.668 132.709 113.458C132.904 113.248 132.949 113.263 133.047 113.143C133.144 113.023 133.242 112.76 133.174 112.655C133.107 112.55 132.747 112.565 132.596 112.573C132.497 112.568 132.398 112.589 132.308 112.634C132.219 112.679 132.143 112.745 132.086 112.828C131.906 113.068 131.936 113.668 131.479 113.578C131.369 113.538 131.274 113.464 131.208 113.367C131.142 113.27 131.108 113.155 131.111 113.038C131.111 112.978 131.111 112.865 131.111 112.82C131.111 112.775 130.841 112.685 130.736 112.73C130.631 112.775 130.518 112.903 130.391 112.963C130.293 113.025 130.183 113.066 130.068 113.083C129.765 113.058 129.468 112.982 129.19 112.858C129.057 112.785 128.919 112.72 128.778 112.663C128.547 112.626 128.311 112.626 128.08 112.663C127.937 112.687 127.799 112.738 127.675 112.813C127.409 112.911 127.123 112.942 126.842 112.903C126.585 112.858 126.32 112.903 126.092 113.03C125.985 113.082 125.871 113.118 125.754 113.135C125.636 113.176 125.525 113.234 125.424 113.308C125.192 113.473 125.372 113.503 125.552 113.556C125.732 113.608 126.002 113.653 126.114 113.826C126.227 113.998 125.904 114.148 125.694 114.163C125.484 114.178 125.102 114.051 125.072 114.261C125.042 114.471 125.822 114.306 126.024 114.328C126.227 114.351 126.377 114.523 126.264 114.696C126.152 114.869 125.814 114.741 125.739 114.741C125.517 114.722 125.294 114.722 125.072 114.741C125.019 114.742 124.968 114.753 124.92 114.775C124.873 114.796 124.83 114.827 124.795 114.866C124.76 114.905 124.733 114.95 124.716 115C124.699 115.049 124.692 115.102 124.696 115.154C124.696 115.904 125.709 115.544 126.197 115.701C126.52 115.821 126.7 116.181 127.03 116.241C127.472 116.339 128.23 116.241 128.448 115.799C128.53 115.634 128.448 115.431 128.658 115.319C128.901 115.244 129.157 115.226 129.408 115.266C129.746 115.266 130.038 115.206 130.376 115.214C130.429 115.21 130.482 115.219 130.531 115.238C130.58 115.257 130.625 115.288 130.661 115.326C130.862 115.479 131.088 115.596 131.329 115.671C131.737 115.783 132.172 115.74 132.551 115.551C132.762 115.454 132.957 115.311 133.152 115.199C133.347 115.086 133.489 115.034 133.504 114.884C133.542 114.493 132.724 114.538 132.514 114.328Z" fill="#755B46" fill-opacity="0.09"/>
<path d="M178.773 115.919C179.351 115.919 179.839 115.589 179.073 115.244C178.488 114.981 177.926 115.056 177.926 114.208C177.926 113.496 178.466 113.593 178.991 113.856C179.314 114.021 180.154 114.808 180.589 114.531C181.272 114.111 180.341 113.698 180.064 113.556C179.644 113.361 178.953 113.15 179.126 112.573C179.299 111.995 180.679 111.89 181.249 111.673C181.91 111.452 182.483 111.026 182.885 110.457C183.23 109.849 183.005 109.189 183.207 108.582C183.582 107.434 185.368 108.019 186.103 107.351C186.411 107.074 186.448 107.089 186.043 106.954C185.394 106.892 184.739 106.943 184.108 107.104C183.23 107.164 183.305 106.766 182.607 106.353C181.909 105.941 180.611 106.158 179.771 106.158C178.872 106.12 177.971 106.181 177.085 106.338C175.78 106.631 174.617 107.344 173.214 107.344C172.075 107.221 170.931 107.158 169.786 107.156C168.287 107.255 166.783 107.255 165.284 107.156C164.419 107.056 163.542 107.14 162.711 107.404L162.808 107.359C161.706 107.606 160.723 108.266 159.582 108.476C158.75 108.563 157.924 108.696 157.107 108.874C156.649 109.002 155.959 109.504 156.356 110.052C156.754 110.6 158.795 110.195 159.567 110.315C160.449 110.543 161.245 111.026 161.856 111.703C162.283 112.375 162.508 113.156 162.501 113.953C162.568 115.146 161.503 115.941 160.918 116.804C160.003 118.162 161.555 119.978 161.751 121.306C161.863 122.056 162.756 122.288 163.499 122.056C164.114 121.8 164.674 121.428 165.149 120.96C165.899 120.308 165.899 119.355 166.747 118.77C167.564 118.267 168.485 117.959 169.44 117.869C171.691 117.449 173.454 115.754 175.735 115.761C176.77 115.821 177.806 115.986 178.773 115.919Z" fill="#755B46" fill-opacity="0.09"/>
<path d="M185.976 126.205C185.733 126.251 185.5 126.337 185.285 126.46C184.84 126.591 184.366 126.591 183.92 126.46C183.809 126.418 183.691 126.403 183.573 126.416C183.456 126.429 183.344 126.47 183.245 126.535C183.084 126.686 182.884 126.787 182.667 126.827C182.554 126.829 182.442 126.854 182.339 126.9C182.236 126.947 182.143 127.014 182.067 127.097C181.962 127.195 181.557 127.412 181.692 127.585C181.827 127.758 181.879 127.585 181.954 127.585C182.029 127.585 182.112 127.495 182.3 127.585C182.521 127.703 182.73 127.844 182.922 128.005C183.138 128.111 183.379 128.156 183.618 128.135C183.857 128.114 184.086 128.027 184.28 127.885C184.52 127.743 184.663 127.803 184.955 127.758C185.196 127.698 185.428 127.607 185.646 127.487C185.871 127.397 186.201 127.42 186.396 127.232C186.591 127.045 186.486 127.015 186.576 126.917C186.666 126.82 186.838 126.835 186.868 126.782L186.928 126.722C186.838 126.64 186.673 126.482 186.546 126.475H186.628C186.351 126.392 186.261 126.182 185.976 126.205Z" fill="#755B46" fill-opacity="0.09"/>
<path d="M186.313 127.638C186.186 127.773 185.818 127.81 185.818 128.02C185.818 128.23 186.201 128.185 185.953 128.56C185.81 128.77 185.593 128.943 185.548 129.198C185.503 129.453 185.503 129.768 185.818 129.746C186.133 129.723 186.216 129.318 186.508 129.273C186.988 129.206 187.596 129.611 188.009 129.206C188.135 129.083 188.226 128.928 188.271 128.757C188.316 128.587 188.313 128.407 188.264 128.238C188.129 127.953 187.739 127.84 187.454 127.675C187.168 127.51 187.138 127.21 186.891 127.232H186.936C186.666 127.097 186.456 127.48 186.313 127.638Z" fill="#755B46" fill-opacity="0.09"/>
<path d="M187.799 127.48C187.994 127.615 188.436 127.735 188.354 127.307C188.069 127.307 188.219 127.03 188.444 127.052C188.444 126.662 187.694 127.052 187.694 126.835V126.88C187.544 126.88 187.349 126.835 187.259 126.962C187.423 127.15 187.604 127.323 187.799 127.48Z" fill="#755B46" fill-opacity="0.09"/>
<path d="M189.442 130.954C189.914 130.792 190.375 130.599 190.822 130.376C191.184 130.282 191.563 130.282 191.925 130.376C192.419 130.39 192.904 130.248 193.313 129.971C193.418 129.881 193.568 129.761 193.538 129.603C193.508 129.446 193.373 129.476 193.305 129.386C193.103 129.085 193.56 129.025 193.463 128.725C193.365 128.425 193.095 128.62 192.893 128.598C192.555 128.598 192.428 128.208 192.323 127.915C192.217 127.623 192.195 127.022 191.97 126.707C191.747 126.493 191.469 126.345 191.167 126.28C191.017 126.227 190.687 126.19 190.612 126.062C190.402 125.769 190.867 125.627 190.972 125.447C191.16 125.117 190.755 125.079 190.522 125.057C190.289 125.034 190.244 125.057 190.154 124.944C190.064 124.832 190.094 124.562 189.989 124.509C189.884 124.457 189.697 124.547 189.614 124.577C189.359 124.629 189.13 124.77 188.969 124.974C188.826 125.207 188.969 125.582 189.157 125.769C189.344 125.957 189.277 125.814 189.322 125.964C189.367 126.115 189.232 126.235 189.232 126.385C189.232 126.752 189.569 126.722 189.832 126.782C190.094 126.842 190.132 126.932 190.312 127.12C190.492 127.307 190.537 127.457 190.529 127.81C190.529 128.05 190.529 128.343 190.237 128.448C189.944 128.553 189.802 128.448 189.592 128.68C189.479 128.8 189.502 128.913 189.442 129.063C189.382 129.213 189.217 129.356 189.074 129.513C189.359 129.618 190.357 129.588 190.117 130.106C189.989 130.376 189.674 130.406 189.442 130.443C189.209 130.481 188.774 130.623 188.691 130.811C188.609 130.999 189.277 130.984 189.442 130.954Z" fill="#755B46" fill-opacity="0.09"/>
<path d="M216.765 138.118C216.327 138.278 215.903 138.474 215.497 138.703C215.392 138.763 215.287 139.086 215.092 139.184C214.897 139.281 214.53 139.109 214.304 139.184C213.224 139.589 212.977 140.009 211.761 140.069C211.829 140.557 212.331 140.384 212.511 140.767C212.691 141.149 212.511 141.659 212.511 141.982C212.511 143.047 212.609 143.055 213.712 143.107C215.025 143.175 215.385 143.107 216.48 143.858C217.756 144.773 217.741 143.738 218.731 143.107C219.901 143.565 218.731 144.675 218.453 145.298C218.176 145.921 218.408 146.648 218.153 147.166C217.651 148.209 215.557 147.654 214.59 147.654C213.91 147.735 213.222 147.695 212.556 147.534C211.866 147.256 211.379 146.693 210.561 146.468C209.518 146.191 207.327 145.786 206.81 147.166C207.012 147.226 207.17 147.474 207.312 147.549C206.892 148.231 205.512 147.804 204.964 147.429C204.392 146.93 203.719 146.562 202.991 146.348C202.491 146.25 202.016 146.053 201.592 145.77C201.168 145.486 200.805 145.122 200.523 144.698C200.08 143.873 200.35 143.017 199.42 142.612C199.256 142.513 199.068 142.46 198.876 142.46C198.684 142.46 198.496 142.513 198.332 142.612C197.732 142.845 197.844 143.13 197.057 143.212C196.269 143.295 195.271 143.16 194.393 143.212C193.585 143.203 192.786 143.375 192.053 143.715C191.64 143.955 191.512 144.383 190.845 144.465C190.386 144.522 189.923 144.522 189.464 144.465C188.489 144.375 186.853 143.557 186.058 144.69C185.661 145.246 185.976 145.561 185.405 146.063C184.835 146.566 184.205 146.618 183.905 147.204C183.155 148.419 184.288 149.184 182.9 150.062C181.512 150.94 180.972 151.18 180.229 152.538C179.584 153.693 178.436 154.511 177.873 155.696C177.483 156.514 177.768 157.399 177.776 158.262C177.776 160.138 176.073 161.068 177.303 162.996C177.768 163.746 178.473 164.302 178.886 165.067C179.299 165.832 179.366 166.822 179.719 167.648C180.371 169.148 183.02 171.294 184.573 171.939C185.811 172.464 186.448 172.081 187.394 171.579C188.308 171.207 189.309 171.1 190.282 171.271C191.91 171.346 192.833 169.411 194.716 170.303C195.624 170.731 195.519 171.391 196.591 171.594C197.664 171.796 198.415 171.594 198.962 172.637C199.645 173.987 198.752 175.442 198.707 176.815C198.662 178.188 199.96 178.211 200.433 179.449C200.785 180.379 200.785 181.407 201.183 182.307C202.008 184.13 202.346 185.113 201.498 187.139C200.868 188.639 200.545 190.522 201.43 192.06C202.443 193.816 202.676 195.511 202.931 197.514C202.96 198.405 203.107 199.288 203.366 200.14C203.771 201.048 204.634 201.896 204.949 202.826C216.071 191.186 222.288 175.712 222.31 159.613C222.087 159.217 221.836 158.839 221.559 158.48C220.809 157.482 221.079 156.979 220.974 155.801C220.884 154.721 220.224 154.556 219.399 153.933C218.879 153.534 218.5 152.98 218.318 152.35C218.011 151.6 217.253 150.58 217.125 149.814C216.998 149.049 217.696 148.779 218.311 149.304C218.498 149.454 218.311 149.942 218.731 150.055C219.016 150.13 219.211 149.724 219.481 149.597C219.678 150.591 219.957 151.567 220.314 152.515C220.659 153.266 221.252 154.016 221.574 154.811C221.719 155.234 221.929 155.631 222.197 155.989C221.872 149.862 220.652 143.816 218.573 138.043C217.983 137.838 217.337 137.865 216.765 138.118Z" fill="#755B46" fill-opacity="0.09"/>
<path d="M208.565 123.271C208.295 123.609 208.843 123.624 208.955 123.804C209.022 124.009 209.04 124.228 209.008 124.442C209.008 124.907 208.76 125.349 208.22 125.192C207.935 125.102 207.568 124.599 207.185 124.914C206.937 125.109 206.915 125.852 206.937 126.145C206.96 126.437 207.215 127.135 206.75 127.42C206.343 127.537 205.911 127.537 205.504 127.42C205.114 127.315 204.829 127.052 204.379 127.127C203.96 127.27 203.549 127.435 203.149 127.623C202.094 127.809 201.017 127.842 199.953 127.72C199.765 127.3 199.42 126.79 199.548 126.287C199.645 125.934 200.17 125.492 199.78 125.109C199.587 125.008 199.366 124.969 199.15 124.999C198.933 125.028 198.731 125.125 198.572 125.274C198.152 125.747 198.497 126.025 198.655 126.497C198.73 126.705 198.758 126.928 198.738 127.148C198.717 127.369 198.648 127.582 198.535 127.773C198.19 128.193 197.582 127.938 197.087 128.058C196.804 128.085 196.539 128.21 196.337 128.41C196.186 128.628 196.336 128.95 195.999 129.16C195.661 129.371 195.076 129.296 194.686 129.626C194.009 130.267 193.295 130.868 192.548 131.426C191.996 131.693 191.402 131.863 190.792 131.929C190.236 132.076 189.669 132.177 189.097 132.229C189.061 132.418 189.065 132.613 189.106 132.801C189.147 132.989 189.226 133.167 189.337 133.324C189.654 133.66 189.952 134.013 190.23 134.382C190.792 135.237 190.807 136.205 189.637 136.513C188.602 136.79 187.454 136.31 186.381 136.363C186.051 136.363 185.308 136.363 185.113 136.708C184.918 137.053 185.518 137.668 185.796 137.938C186.073 138.208 186.336 138.306 186.501 138.531C186.876 139.064 186.426 140.106 186.148 140.602C186.021 140.849 185.488 141.232 185.451 141.487C185.263 142.5 186.561 143.1 187.296 143.265C188.031 143.43 189.134 143.753 189.787 143.558C190.44 143.362 191.19 142.267 191.46 141.569C191.873 140.512 191.715 139.979 192.765 139.319C193.14 139.094 193.643 139.079 193.973 138.711C194.303 138.343 194.258 137.698 194.611 137.398C195.144 136.955 196.434 137.271 197.102 136.955C198.197 136.445 198.317 136.13 199.465 136.903C200.463 137.586 201.371 138.403 202.301 139.079C203.051 139.611 202.774 139.551 202.984 140.377C203.127 140.98 203.436 141.531 203.876 141.967C204.171 141.739 204.401 141.437 204.542 141.092C204.683 140.747 204.73 140.371 204.679 140.001C205.054 140.001 205.429 140.001 205.834 140.001C206.345 137.893 200.905 137.968 201.236 135.5C201.903 135.32 202.031 135.725 202.533 135.935C202.886 136.093 203.441 136.078 203.779 136.265C204.259 136.535 204.251 136.873 204.657 137.241C204.942 137.503 205.309 137.488 205.647 137.728C207.02 138.688 205.752 141.389 208.708 141.194C207.68 141.742 208.775 142.755 209 143.512C209.038 142.762 209.706 142.252 209.691 141.374C209.676 140.497 209.188 140.144 210.291 139.799C210.996 139.574 211.791 139.559 212.452 139.304C213.502 138.914 213.359 138.884 213.074 137.803C212.962 137.406 212.647 137.473 212.834 136.925C212.932 136.655 213.584 136.295 213.742 136.018C214.155 135.387 214.387 134.135 215.392 134.082C216.398 134.03 216.038 135.11 216.66 135.582C216.966 135.782 217.338 135.852 217.696 135.778C215.928 131.453 213.684 127.338 211.004 123.511C210.692 123.452 210.384 123.374 210.081 123.279C209.848 123.211 208.685 123.084 208.565 123.271Z" fill="#755B46" fill-opacity="0.09"/>
<path d="M200.883 118.027C200.71 118.44 200.883 118.725 200.59 119.122C199.968 119.963 198.782 120.015 197.844 120.21C197.094 120.368 196.959 121.073 196.224 121.298C196.186 122.048 196.134 123.496 196.697 124.051C197.447 124.802 198.947 123.444 199.825 123.654C200.478 123.811 200.335 124.329 200.5 124.794C200.797 125.351 201.262 125.8 201.828 126.077C202.124 126.191 202.449 126.204 202.752 126.114C203.056 126.025 203.322 125.838 203.509 125.582C203.816 125.109 203.636 124.569 204.049 124.171C204.461 123.774 204.717 123.631 204.799 123.069C204.904 122.228 204.416 122.498 203.966 122.041C202.833 120.908 205.219 120.315 205.819 120.015C206.106 119.868 206.361 119.667 206.57 119.422C206.727 119.235 206.81 118.83 207.005 118.672C207.058 118.632 207.12 118.604 207.185 118.59C206.215 117.464 205.214 116.374 204.184 115.319C202.713 115.971 201.386 116.872 200.883 118.027Z" fill="#755B46" fill-opacity="0.09"/>
<path d="M207.26 119.708C206.862 120.548 206.044 121.433 206.96 122.326C207.71 123.076 208.618 122.326 209.465 122.228L210.043 122.183C209.203 121.048 208.328 119.945 207.417 118.875C207.418 119.16 207.364 119.442 207.26 119.708Z" fill="#755B46" fill-opacity="0.09"/>
</g>
</svg>
